<?xml version="1.0" encoding="UTF-8"?>
<svg version="1.1" viewBox="0 0 36 36" xmlns="http://www.w3.org/2000/svg"><path d="M36 18c0 9.941-8.059 18-18 18-9.94 0-18-8.059-18-18C0 8.06 8.06 0 18 0c9.941 0 18 8.06 18 18" fill="#FFCC4D"/><path d="m16.664 10.543c-11.109-7.0287-5.5547-3.5143 0 0zm2.602 0.092c-12.844-7.09-6.422-3.545 0 0zm-9.268-0.635c-0.448 0-0.855-0.303-0.969-0.757-0.133-0.535 0.191-1.077 0.724-1.212 0.036-9e-3 3.593-0.961 5.352-4.478 0.247-0.494 0.846-0.695 1.342-0.447 0.494 0.247 0.694 0.848 0.447 1.342-2.181 4.361-6.471 5.477-6.652 5.523-0.081 0.02-0.163 0.029-0.244 0.029zm16.002 0c-0.08 0-0.161-0.01-0.242-0.03-0.182-0.045-4.472-1.162-6.652-5.523-0.247-0.494-0.047-1.095 0.447-1.342 0.493-0.247 1.094-0.047 1.342 0.447 1.758 3.517 5.315 4.469 5.352 4.478 0.533 0.137 0.857 0.681 0.722 1.215-0.116 0.453-0.522 0.755-0.969 0.755zm-8 18.965c-3.623 0-6.027 0.422-9 1-0.679 0.131-2 0-2-2 0-4 4.595-9 11-9 6.404 0 11 5 11 9 0 2-1.321 2.132-2 2-2.973-0.578-5.377-1-9-1z" fill="#664500"/><path d="m10 25s3-1 8-1 8 1 8 1-2-4-8-4-8 4-8 4z" fill="#FFF"/><g stroke-width=".8314"><circle cx="23.485" cy="14.488" r="4.5727" fill="#f5f8fa"/><circle cx="12.677" cy="14.488" r="4.5727" fill="#f5f8fa"/><circle cx="12.677" cy="14.488" r="2.0785" fill="#292f33"/><circle cx="23.485" cy="14.488" r="2.0785" fill="#292f33"/></g></svg>
