<?xml version="1.0" encoding="UTF-8"?>
<svg version="1.1" viewBox="0 0 36 36" xmlns="http://www.w3.org/2000/svg"><path d="M36 18c0 9.941-8.059 18-18 18-9.94 0-18-8.059-18-18C0 8.06 8.06 0 18 0c9.941 0 18 8.06 18 18" fill="#FFCC4D"/><path d="m15 18h-7c-0.552 0-1-0.448-1-1s0.448-1 1-1h7c0.552 0 1 0.448 1 1s-0.448 1-1 1zm13 0h-7c-0.553 0-1-0.448-1-1s0.447-1 1-1h7c0.553 0 1 0.448 1 1s-0.447 1-1 1z" fill="#664500"/><path d="m17.999 25.906c0.412 1.335 1.156 2.629 2.5 2.629 2.619 0 2.968-4.912 2.999-5.472 0.027-0.274-0.193-0.509-0.468-0.527-0.274-0.017-0.511 0.19-0.53 0.464-2e-3 0.035-0.299 3.535-2.001 3.535s-1.999-3.5-2.001-3.535c-1e-3 -0.013-8e-3 -0.023-0.01-0.036-6e-3 -0.053-0.018-0.102-0.041-0.149l-9e-3 -0.015c-0.027-0.048-0.059-0.091-0.1-0.127-0.015-0.014-0.031-0.023-0.047-0.035-0.032-0.023-0.064-0.044-0.103-0.06-0.029-0.012-0.061-0.018-0.092-0.024-0.023-4e-3 -0.044-0.016-0.067-0.018-0.011 0-0.021 4e-3 -0.031 4e-3s-0.021-5e-3 -0.031-4e-3c-0.024 1e-3 -0.045 0.013-0.068 0.018-0.031 6e-3 -0.061 0.011-0.09 0.023-0.03 0.013-0.057 0.031-0.084 0.049-0.024 0.017-0.05 0.032-0.071 0.052-0.023 0.023-0.041 0.05-0.061 0.078-0.017 0.024-0.034 0.046-0.047 0.074-0.015 0.032-0.021 0.066-0.027 0.101-6e-3 0.024-0.018 0.044-0.02 0.069-1e-3 0.035-0.298 3.535-2 3.535s-1.999-3.5-2.001-3.535c-0.02-0.274-0.257-0.481-0.53-0.464-0.265 0.017-0.469 0.237-0.469 0.499l1e-3 0.028c0.031 0.56 0.38 5.472 2.999 5.472 1.344 0 2.088-1.294 2.5-2.629z" fill="#664500"/></svg>
