<?xml version="1.0" encoding="UTF-8"?>
<svg version="1.1" viewBox="0 0 36 36" xmlns="http://www.w3.org/2000/svg" xmlns:cc="http://creativecommons.org/ns#" xmlns:dc="http://purl.org/dc/elements/1.1/" xmlns:rdf="http://www.w3.org/1999/02/22-rdf-syntax-ns#"><metadata><rdf:RDF><cc:Work rdf:about=""><dc:format>image/svg+xml</dc:format><dc:type rdf:resource="http://purl.org/dc/dcmitype/StillImage"/></cc:Work></rdf:RDF></metadata><circle cx="18" cy="18" r="18" fill="#FFCC4D"/><circle cx="18" cy="26" r="3" fill="#664500"/><circle cx="24.855" cy="16.415" r="5.5" fill="#f5f8fa"/><path d="M34.43 12.534c.004-.044.023-.077.023-.123 0-.754-.548-1.188-1.225-1.188h-3.582l4.279-5.993c.206-.283.282-.453.282-.811 0-.735-.64-.849-.885-.849h-5.349l-.032-.688s-1.409.831-1.503.888-.505.372-.505.987c0 .754.546 1.187 1.225 1.187h3.149l-4.261 5.993c-.094.151-.244.433-.244.735 0 .622.508.924 1.111.924h6.315c.258 0 .515-.076.681-.176l1.503-.888h-.982z" fill="#FFAC33"/><circle cx="11.855" cy="16.415" r="5.5" fill="#f5f8fa"/><path d="M31.771 5.084h-3.149c-.679 0-1.225-.433-1.225-1.187s.546-1.188 1.225-1.188h6.164c.245 0 .885.113.885.848 0 .358-.076.528-.282.811l-4.279 5.993h3.582c.677 0 1.225.433 1.225 1.187s-.548 1.187-1.225 1.187h-6.315c-.603 0-1.111-.302-1.111-.924 0-.302.15-.584.244-.735l4.261-5.992z" fill="#2A6797"/><path d="M24.886 7.48c.003-.033.018-.058.018-.092 0-.564-.41-.889-.917-.889h-2.682l3.203-4.487c.156-.212.212-.339.212-.606 0-.55-.479-.635-.663-.635h-4.004l-.024-.515s-1.055.622-1.125.665c-.07.043-.378.279-.378.739 0 .564.409.889.917.889H21.8l-3.19 4.487c-.07.113-.183.324-.183.55 0 .466.38.691.832.691h4.728c.193 0 .385-.057.51-.132l1.125-.665h-.736z" fill="#FFAC33"/><path d="M22.896 1.903h-2.357c-.508 0-.917-.324-.917-.889 0-.564.409-.889.917-.889h4.615c.184 0 .663.085.663.635 0 .268-.057.395-.211.607l-3.203 4.487h2.682c.505 0 .915.324.915.889s-.41.889-.917.889h-4.728c-.452 0-.832-.226-.832-.691 0-.226.113-.437.183-.55l3.19-4.488z" fill="#2A6797"/><circle cx="11.855" cy="16.415" r="2.5" fill="#292f33"/><path d="M17.741 10.425c.003-.028.015-.049.015-.079 0-.483-.351-.761-.785-.761h-2.295l2.742-3.84c.132-.181.181-.29.181-.519 0-.471-.41-.544-.567-.544h-3.427l-.021-.441-.963.569c-.06.037-.324.238-.324.633 0 .483.35.761.785.761h2.017l-2.73 3.84c-.06.097-.157.278-.157.471 0 .399.326.592.712.592h4.047c.165 0 .33-.049.436-.113l.963-.569h-.629z" fill="#FFAC33"/><path d="M16.037 5.652H14.02c-.435 0-.785-.278-.785-.761s.35-.761.785-.761h3.95c.157 0 .567.073.567.544 0 .229-.048.338-.181.519l-2.742 3.84h2.295c.434 0 .785.278.785.761s-.351.761-.785.761h-4.047c-.386 0-.712-.193-.712-.592 0-.193.096-.374.157-.471l2.73-3.84z" fill="#2A6797"/><circle cx="24.855" cy="16.415" r="2.5" fill="#292f33"/></svg>
