<?xml version="1.0" encoding="UTF-8"?>
<svg version="1.1" viewBox="0 0 36 36" xmlns="http://www.w3.org/2000/svg"><path d="M36 18c0 9.941-8.059 18-18 18-9.94 0-18-8.059-18-18C0 8.06 8.06 0 18 0c9.941 0 18 8.06 18 18" fill="#FFCC4D"/><circle transform="rotate(-52.816)" cx="7.9364" cy="30.417" r="5" fill="#ff7892"/><circle transform="rotate(-52.816)" cx="-14.064" cy="30.417" r="5" fill="#ff7892"/><circle transform="rotate(-52.816)" cx="3.4364" cy="23.917" r="5.5" fill="#f5f8fa"/><circle transform="rotate(-52.816)" cx="-9.5636" cy="23.917" r="5.5" fill="#f5f8fa"/><circle transform="rotate(-52.816)" cx="-9.5636" cy="23.917" r="2.5" fill="#292f33"/><circle transform="rotate(-52.816)" cx="3.4364" cy="23.917" r="2.5" fill="#292f33"/><path d="m30.376 21.868-4.835 6.3736c-0.33361 0.43978-0.9605 0.52655-1.4011 0.19233-0.44058-0.33422-0.52594-0.96129-0.19233-1.4011l4.835-6.3736c0.33422-0.44058 0.9605-0.52655 1.4011-0.19233s0.52655 0.9605 0.19233 1.4011zm-10.302-17.857c-0.18433 0.24299-0.47498 0.39781-0.80278 0.39641-4.4007-0.024697-6.5296 2.6543-6.6189 2.7686-0.33718 0.43456-0.96404 0.51633-1.3996 0.18214-0.43717-0.3354-0.52256-0.95748-0.19016-1.3957 0.1112-0.14659 2.7819-3.5844 8.2196-3.555 0.55279 0.00263 0.99793 0.45327 0.99451 1.0055-0.0012 0.225-0.07636 0.43159-0.20268 0.5981zm-14.506 19.122c-0.12571 0.16571-0.30502 0.29453-0.52136 0.35635-0.53084 0.1521-1.0842-0.15594-1.2363-0.68678-1.4942-5.2279 1.0974-8.7269 1.2086-8.8735 0.33361-0.43978 0.96129-0.52594 1.4011-0.19233 0.43898 0.33301 0.52616 0.9577 0.19475 1.3979-0.092084 0.1247-2.0879 2.8946-0.88139 7.1185 0.090279 0.3145 0.018308 0.63771-0.16542 0.87991z" fill="#664500"/></svg>
