<?xml version="1.0" encoding="UTF-8"?>
<svg version="1.1" viewBox="0 0 36 36" xmlns="http://www.w3.org/2000/svg"><path d="M36 13.5c0-4.558-4.435-8.267-10-8.479V5H10v.021C4.435 5.233 0 8.942 0 13.5c0 1.861.747 3.576 2 4.976V31c0 2.209 1.791 4 4 4h24c2.209 0 4-1.791 4-4V18.476c1.253-1.4 2-3.115 2-4.976z" fill="#D99E82"/><path d="M19 18.476h15v1.5H19z" fill="#CC927A"/><path d="M21 13.5c0-3.461-3.538-6.291-8-6.489C12.835 7.004 10.668 7 10.5 7 5.806 7 2 9.91 2 13.5c0 1.595.754 3.053 2 4.184V30c0 1.657 1.343 3 3 3h9c1.657 0 3-1.343 3-3V17.679c1.244-1.131 2-2.586 2-4.179z" fill="#FFE8B6"/><g stroke-width=".54035"><ellipse cx="16.336" cy="24.44" rx="2.2206" ry="3.2872" fill="#ff7892"/><ellipse cx="6.5652" cy="24.44" rx="2.2206" ry="3.2872" fill="#ff7892"/><ellipse cx="14.337" cy="20.167" rx="2.4426" ry="3.6159" fill="#f5f8fa"/><ellipse cx="8.5637" cy="20.167" rx="2.4426" ry="3.6159" fill="#f5f8fa"/><ellipse cx="8.5637" cy="20.167" rx="1.1103" ry="1.6436" fill="#292f33"/><ellipse cx="14.337" cy="20.167" rx="1.1103" ry="1.6436" fill="#292f33"/><path d="m13.227 29.042h-3.5529c-0.24515 0-0.44412-0.29387-0.44412-0.65743s0.19896-0.65743 0.44412-0.65743h3.5529c0.2456 0 0.44412 0.29387 0.44412 0.65743s-0.19852 0.65743-0.44412 0.65743zm3.5534-12.491c-0.13546 0-0.26825-0.09072-0.35574-0.26297-1.1725-2.3148-2.6918-2.3654-2.7562-2.3668-0.24426-0.0039-0.44145-0.29979-0.44012-0.66072 0.0013-0.36224 0.19852-0.65414 0.44278-0.65414 0.08172 0 2.015 0.03288 3.4641 2.8927 0.14745 0.29058 0.10748 0.70279-0.08883 0.9204-0.07994 0.08875-0.1732 0.13149-0.26602 0.13149zm-10.66 0c-0.092376 0-0.18608-0.04273-0.26603-0.13149-0.1963-0.21761-0.23583-0.62982-0.088824-0.9204 1.4487-2.8598 3.3824-2.8927 3.4641-2.8927 0.24515 0 0.44412 0.29453 0.44412 0.65743 0 0.36224-0.19763 0.65612-0.44234 0.65743-0.068838 0.0013-1.5846 0.05654-2.7553 2.3668-0.087046 0.17225-0.22073 0.26297-0.35574 0.26297z" fill="#664500"/></g></svg>
