<?xml version="1.0" encoding="UTF-8"?>
<svg version="1.1" viewBox="0 0 36 36" xmlns="http://www.w3.org/2000/svg"><path d="m35.99 18c0 9.941-8.059 18-18 18-9.94 0-18-8.059-18-18 0-9.94 8.06-18 18-18s18 8.06 18 18" fill="#77B255"/><path d="m12.782 32.915c-0.36473 0-0.70399-0.28-0.82556-0.724-0.15197-0.555 0.09447-1.155 0.54956-1.339 0.07804-0.033 2.015-0.877 2.015-3.231s-1.937-3.198-2.0191-3.232c-0.4518-0.191-0.69495-0.791-0.54134-1.342 0.15361-0.552 0.64074-0.852 1.0958-0.665 0.13061 0.053 3.2037 1.344 3.2037 5.239s-3.0731 5.187-3.2037 5.239c-0.09036 0.037-0.18318 0.055-0.27437 0.055zm10.437 0c-0.09118 0-0.18318-0.018-0.27437-0.055-0.13061-0.053-3.2037-1.344-3.2037-5.239s3.0731-5.187 3.2037-5.239c0.4592-0.187 0.94796 0.115 1.0999 0.669 0.15197 0.553-0.09283 1.151-0.54545 1.338-0.08215 0.034-2.0191 0.878-2.0191 3.232s1.937 3.198 2.0191 3.232c0.45262 0.191 0.69577 0.791 0.54216 1.342-0.12322 0.442-0.46084 0.72-0.82228 0.72z" fill="#3e721d" stroke-width=".90634"/><circle cx="29" cy="23" r="5" fill="#ff7892"/><circle cx="7" cy="23" r="5" fill="#ff7892"/><circle cx="24.5" cy="16.5" r="5.5" fill="#f5f8fa"/><circle cx="11.5" cy="16.5" r="5.5" fill="#f5f8fa"/><circle cx="11.5" cy="16.5" r="2.5" fill="#292f33"/><circle cx="24.5" cy="16.5" r="2.5" fill="#292f33"/><path d="m30.001 11c-0.305 0-0.604-0.138-0.801-0.4-2.64-3.521-6.061-3.598-6.206-3.6-0.55-6e-3 -0.994-0.456-0.991-1.005 3e-3 -0.551 0.447-0.995 0.997-0.995 0.184 0 4.537 0.05 7.8 4.4 0.332 0.442 0.242 1.069-0.2 1.4-0.18 0.135-0.39 0.2-0.599 0.2zm-24.002 0c-0.208 0-0.419-0.065-0.599-0.2-0.442-0.331-0.531-0.958-0.2-1.4 3.262-4.35 7.616-4.4 7.8-4.4 0.552 0 1 0.448 1 1 0 0.551-0.445 0.998-0.996 1-0.155 2e-3 -3.568 0.086-6.204 3.6-0.196 0.262-0.497 0.4-0.801 0.4z" fill="#3e721d"/></svg>
