<?xml version="1.0" encoding="UTF-8"?>
<svg version="1.1" viewBox="0 0 36 36" xmlns="http://www.w3.org/2000/svg"><path d="M36 18c0 9.941-8.059 18-18 18-9.94 0-18-8.059-18-18C0 8.06 8.06 0 18 0c9.941 0 18 8.06 18 18" fill="#FFCC4D"/><circle cx="29" cy="23" r="5" fill="#FF7892"/><circle cx="7" cy="23" r="5" fill="#FF7892"/><circle cx="24.5" cy="16.5" r="5.5" fill="#F5F8FA"/><circle cx="11.5" cy="16.5" r="5.5" fill="#F5F8FA"/><circle cx="11.5" cy="16.5" r="2.5" fill="#292F33"/><circle cx="24.5" cy="16.5" r="2.5" fill="#292F33"/><path d="m22 30h-8c-0.552 0-1-0.447-1-1s0.448-1 1-1h8c0.553 0 1 0.447 1 1s-0.447 1-1 1z" fill="#664500"/><path d="m7.102 12.559c0.249 0.176 0.574 0.236 0.885 0.135 4.187-1.355 7.027 0.554 7.146 0.636 0.453 0.312 1.075 0.201 1.39-0.25s0.208-1.071-0.241-1.388c-0.15-0.106-3.736-2.575-8.91-0.901-0.526 0.17-0.814 0.734-0.643 1.259 0.068 0.214 0.203 0.388 0.373 0.509zm22.899-2.151c-0.368 0-0.731-0.161-0.979-0.471-1.395-1.751-4.299-3.287-5.314-3.287-0.642 0-1.925 0.911-2.604 1.568-0.496 0.482-1.288 0.467-1.767-0.028-0.48-0.495-0.469-1.285 0.024-1.766 0.391-0.38 2.436-2.275 4.347-2.275 2.005 0 5.538 2.056 7.27 4.229 0.431 0.54 0.341 1.326-0.198 1.756-0.231 0.185-0.507 0.274-0.779 0.274z" fill="#664500"/></svg>
