<?xml version="1.0" encoding="UTF-8"?>
<svg version="1.1" viewBox="0 0 36 36" xmlns="http://www.w3.org/2000/svg"><g fill="#4289C1"><circle cx="29" cy="3" r="2"/><circle cx="33" cy="8" r="3"/><circle cx="33" cy="4" r="3"/><circle cx="7" cy="3" r="2"/><circle cx="3" cy="8" r="3"/><circle cx="3" cy="4" r="3"/></g><path d="M36 18c0 9.941-8.059 18-18 18S0 27.941 0 18 8.059 0 18 0s18 8.059 18 18" fill="#fee79a"/><g fill="#4289C1"><circle cx="30.5" cy="4.5" r="2.5"/><circle cx="32" cy="7" r="2"/><circle cx="5.5" cy="4.5" r="2.5"/><circle cx="4" cy="7" r="2"/></g><circle cx="6.93" cy="21" r="4" fill="#FF7892"/><circle cx="28.93" cy="21" r="4" fill="#FF7892"/><path d="M27.335 23.629c-.178-.161-.444-.171-.635-.029-.039.029-3.922 2.9-8.7 2.9-4.766 0-8.662-2.871-8.7-2.9-.191-.142-.457-.13-.635.029-.177.16-.217.424-.094.628C8.7 24.472 11.788 31 18 31s9.301-6.528 9.429-6.743c.123-.205.084-.468-.094-.628z" fill="none"/><circle cx="24.5" cy="15.033" r="5.5" fill="#f5f8fa"/><circle cx="11.5" cy="15.033" r="5.5" fill="#f5f8fa"/><circle cx="11.5" cy="15.033" r="2.5" fill="#292f33"/><circle cx="24.5" cy="15.033" r="2.5" fill="#292f33"/><circle cx="18.5" cy="20.41" r="3.5" fill="#bb1a34"/><path d="m30.001 11c-0.305 0-0.604-0.138-0.801-0.4-2.64-3.521-6.061-3.598-6.206-3.6-0.55-6e-3 -0.994-0.456-0.991-1.005 3e-3 -0.551 0.447-0.995 0.997-0.995 0.184 0 4.537 0.05 7.8 4.4 0.332 0.442 0.242 1.069-0.2 1.4-0.18 0.135-0.39 0.2-0.599 0.2zm-24.002 0c-0.208 0-0.419-0.065-0.599-0.2-0.442-0.331-0.531-0.958-0.2-1.4 3.262-4.35 7.616-4.4 7.8-4.4 0.552 0 1 0.448 1 1 0 0.551-0.445 0.998-0.996 1-0.155 2e-3 -3.568 0.086-6.204 3.6-0.196 0.262-0.497 0.4-0.801 0.4z" fill="#664500"/><path d="m22 30h-8c-0.552 0-1-0.447-1-1s0.448-1 1-1h8c0.553 0 1 0.447 1 1s-0.447 1-1 1z" fill="#da2f47"/></svg>
