<?xml version="1.0" encoding="UTF-8"?>
<svg version="1.1" viewBox="0 0 36 36" xmlns="http://www.w3.org/2000/svg"><g transform="matrix(.41069 0 0 .41069 5.1378 7.0258)"><path d="m36 18c0 9.941-8.059 18-18 18-9.94 0-18-8.059-18-18 0-9.94 8.06-18 18-18 9.941 0 18 8.06 18 18" fill="#ffcc4d"/><circle cx="29" cy="23" r="5" fill="#ff7892"/><circle cx="7" cy="23" r="5" fill="#ff7892"/><circle cx="24.5" cy="16.5" r="5.5" fill="#f5f8fa"/><circle cx="11.5" cy="16.5" r="5.5" fill="#f5f8fa"/><circle cx="11.5" cy="16.5" r="2.5" fill="#292f33"/><circle cx="24.5" cy="16.5" r="2.5" fill="#292f33"/><path d="m22 30h-8c-0.552 0-1-0.447-1-1s0.448-1 1-1h8c0.553 0 1 0.447 1 1s-0.447 1-1 1zm8.001-19c-0.305 0-0.604-0.138-0.801-0.4-2.64-3.521-6.061-3.598-6.206-3.6-0.55-6e-3 -0.994-0.456-0.991-1.005 3e-3 -0.551 0.447-0.995 0.997-0.995 0.184 0 4.537 0.05 7.8 4.4 0.332 0.442 0.242 1.069-0.2 1.4-0.18 0.135-0.39 0.2-0.599 0.2zm-24.002 0c-0.208 0-0.419-0.065-0.599-0.2-0.442-0.331-0.531-0.958-0.2-1.4 3.262-4.35 7.616-4.4 7.8-4.4 0.552 0 1 0.448 1 1 0 0.551-0.445 0.998-0.996 1-0.155 2e-3 -3.568 0.086-6.204 3.6-0.196 0.262-0.497 0.4-0.801 0.4z" fill="#664500"/></g><path d="M26 18v2H13.293c-.867 0-1.835.896-2.161 2L7.59 34c-.326 1.104.306 2 1.41 2h18c1.104 0 2-.896 2-2V24c0-1.861 1.278-3.412 3-3.858V18h-6z" fill="#AAB8C2"/><path d="M22 21.875C22 25.396 17.522 29 12 29c-5.523 0-10-3.604-10-7.125C2 20 2.833 20 12 20c9.166 0 10 0 10 1.875zM25 19c0 .553-.514 1-1.15 1H3.15C2.515 20 2 19.553 2 19c0-.553.515-1 1.15-1h20.7c.636 0 1.15.447 1.15 1z" fill="#E1E8ED"/><path d="M18 16H6c-1.104 0-2 .896-2 2h16c0-1.104-.896-2-2-2zm2-16v18c1.104 0 2-1.007 2-2.25V2.25C22 1.007 21.104 0 20 0z" fill="#99AAB5"/><path d="M34 4c0-1.104-.896-2-2-2h-8c-1.104 0-2 .896-2 2v14c0 1.104.896 2 2 2h8c1.104 0 2-.896 2-2V4z" fill="#E1E8ED"/><circle cx="20" cy="16" r="2" fill="#CCD6DD"/><path d="M22 4h12v2H22z" fill="#CCD6DD"/><path d="M25 21c0 .553-.447 1-1 1H3c-.552 0-1-.447-1-1 0-.553.448-1 1-1h21c.553 0 1 .447 1 1z" fill="#AAB8C2"/></svg>
