<?xml version="1.0" encoding="UTF-8"?>
<svg version="1.1" viewBox="0 0 36 36" xmlns="http://www.w3.org/2000/svg"><path d="M36 18c0 9.941-8.059 18-18 18-9.94 0-18-8.059-18-18C0 8.06 8.06 0 18 0c9.941 0 18 8.06 18 18" fill="#FFCC4D"/><circle cx="29" cy="23" r="5" fill="#FF7892"/><circle cx="7" cy="23" r="5" fill="#FF7892"/><circle cx="24.5" cy="16.5" r="5.5" fill="#F5F8FA"/><circle cx="11.5" cy="16.5" r="5.5" fill="#F5F8FA"/><circle cx="11.5" cy="16.5" r="2.5" fill="#292F33"/><circle cx="24.5" cy="16.5" r="2.5" fill="#292F33"/><path d="M22 30h-8c-.552 0-1-.447-1-1s.448-1 1-1h8c.553 0 1 .447 1 1s-.447 1-1 1zm8.001-19c-.305 0-.604-.138-.801-.4-2.64-3.521-6.061-3.598-6.206-3.6-.55-.006-.994-.456-.991-1.005C22.006 5.444 22.45 5 23 5c.184 0 4.537.05 7.8 4.4.332.442.242 1.069-.2 1.4-.18.135-.39.2-.599.2zM5.999 11c-.208 0-.419-.065-.599-.2-.442-.331-.531-.958-.2-1.4C8.462 5.05 12.816 5 13 5c.552 0 1 .448 1 1 0 .551-.445.998-.996 1-.155.002-3.568.086-6.204 3.6-.196.262-.497.4-.801.4z" fill="#664500"/><path d="m1.0895 18.344c0.24 0.239 1.438 0.957 1.677 1.675 0.24 0.717 0.72 4.784 2.158 5.981 1.483 1.232 7.077 0.774 8.148 0.24 2.397-1.195 2.691-4.531 3.115-6.221 0.239-0.957 1.677-0.957 1.677-0.957s1.438 0 1.678 0.956c0.424 1.691 0.72 5.027 3.115 6.221 1.072 0.535 6.666 0.994 8.151-0.238 1.436-1.197 1.915-5.264 2.155-5.982 0.238-0.717 1.438-1.435 1.677-1.674 0.241-0.239 0.241-1.196 0-1.436-0.479-0.478-6.134-0.904-12.223-0.239-1.215 0.133-1.677 0.478-4.554 0.478-2.875 0-3.339-0.346-4.553-0.478-6.085-0.666-11.741-0.24-12.221 0.238-0.239 0.239-0.239 1.197 0 1.436z" clip-rule="evenodd" fill="#292f33" fill-rule="evenodd"/></svg>
