<?xml version="1.0" encoding="UTF-8"?>
<svg version="1.1" viewBox="0 0 36 36" xmlns="http://www.w3.org/2000/svg"><path d="M35 17c0 9.389-7.611 17-17 17-9.388 0-17-7.611-17-17C1 7.612 8.612 0 18 0c9.389 0 17 7.612 17 17" fill="#FFCB4C"/><circle cx="29" cy="19.314" r="5" fill="#ff7892"/><path d="m22 28.281h-8c-0.552 0-1-0.447-1-1s0.448-1 1-1h8c0.553 0 1 0.447 1 1s-0.447 1-1 1zm8.001-19c-0.305 0-0.604-0.138-0.801-0.4-2.64-3.521-6.061-3.598-6.206-3.6-0.55-6e-3 -0.994-0.456-0.991-1.005 3e-3 -0.551 0.447-0.995 0.997-0.995 0.184 0 4.537 0.05 7.8 4.4 0.332 0.442 0.242 1.069-0.2 1.4-0.18 0.135-0.39 0.2-0.599 0.2zm-24.002 0c-0.208 0-0.419-0.065-0.599-0.2-0.442-0.331-0.531-0.958-0.2-1.4 3.262-4.35 7.616-4.4 7.8-4.4 0.552 0 1 0.448 1 1 0 0.551-0.445 0.998-0.996 1-0.155 2e-3 -3.568 0.086-6.204 3.6-0.196 0.262-0.497 0.4-0.801 0.4z" fill="#664500"/><circle cx="7" cy="19.314" r="5" fill="#ff7892"/><path d="m18 27.136c3.335 0 5.547 0.388 8.284 0.92 0.625 0.12 1.841 0 1.841-1.841 0-3.682-4.23-8.284-10.125-8.284s-10.125 4.602-10.125 8.284c0 1.841 1.216 1.962 1.841 1.841 2.736-0.532 4.949-0.92 8.284-0.92z" fill="#65471b"/><path d="M25.712 32.287v-7.101c0-2.593-3.889-5.185-7.778-5.185s-7.778 2.593-7.778 5.185v7.101c-4.403.349-7.359.985-7.359 1.713 0 1.105 6.777 2 15.137 2s15.137-.895 15.137-2c0-.728-2.956-1.364-7.359-1.713z" fill="#77AF57"/><g fill="#5D8F3F"><circle cx="15.875" cy="23.228" r="1.235"/><circle cx="20.698" cy="25.64" r="1.235"/><ellipse transform="rotate(-80.781 21.232 30.514)" cx="21.232" cy="30.515" rx="1.235" ry="1.235"/><ellipse transform="rotate(-80.781 15.107 32.548)" cx="15.107" cy="32.548" rx="1.765" ry="1.765"/></g><circle cx="24.5" cy="12.814" r="5.5" fill="#f5f8fa"/><circle cx="11.5" cy="12.814" r="5.5" fill="#f5f8fa"/><circle cx="11.5" cy="12.814" r="2.5" fill="#292f33"/><circle cx="24.5" cy="12.814" r="2.5" fill="#292f33"/></svg>
