<?xml version="1.0" encoding="UTF-8"?>
<svg version="1.1" viewBox="0 0 36 36" xmlns="http://www.w3.org/2000/svg"><path d="M36 18c0 9.941-8.059 18-18 18-9.94 0-18-8.059-18-18C0 8.06 8.06 0 18 0c9.941 0 18 8.06 18 18" fill="#FFCC4D"/><circle cx="29" cy="21.614" r="5" fill="#ff7892"/><circle cx="7" cy="21.614" r="5" fill="#ff7892"/><circle cx="24.5" cy="15.114" r="5.5" fill="#f5f8fa"/><circle cx="11.5" cy="15.114" r="5.5" fill="#f5f8fa"/><circle cx="11.5" cy="15.114" r="2.5" fill="#292f33"/><circle cx="24.5" cy="15.114" r="2.5" fill="#292f33"/><path d="m30.001 10.156c-0.305 0-0.604-0.138-0.801-0.4-2.64-3.521-6.061-3.598-6.206-3.6-0.55-6e-3 -0.994-0.456-0.991-1.005 3e-3 -0.551 0.447-0.995 0.997-0.995 0.184 0 4.537 0.05 7.8 4.4 0.332 0.442 0.242 1.069-0.2 1.4-0.18 0.135-0.39 0.2-0.599 0.2zm-24.002 0c-0.208 0-0.419-0.065-0.599-0.2-0.442-0.331-0.531-0.958-0.2-1.4 3.262-4.35 7.616-4.4 7.8-4.4 0.552 0 1 0.448 1 1 0 0.551-0.445 0.998-0.996 1-0.155 2e-3 -3.568 0.086-6.204 3.6-0.196 0.262-0.497 0.4-0.801 0.4z" fill="#664500"/><path d="m18 23.872c-3.623 0-6.027-0.422-9-1-0.679-0.131-2 0-2 2 0 4 4.595 9 11 9 6.404 0 11-5 11-9 0-2-1.321-2.132-2-2-2.973 0.578-5.377 1-9 1z" fill="#664500"/><path d="m9 24.872s3 1 9 1 9-1 9-1-2 4-9 4-9-4-9-4z" fill="#fff"/></svg>
