<?xml version="1.0" encoding="UTF-8"?>
<svg version="1.1" viewBox="0 0 36 36" xmlns="http://www.w3.org/2000/svg" xmlns:cc="http://creativecommons.org/ns#" xmlns:dc="http://purl.org/dc/elements/1.1/" xmlns:rdf="http://www.w3.org/1999/02/22-rdf-syntax-ns#"><metadata><rdf:RDF><cc:Work rdf:about=""><dc:format>image/svg+xml</dc:format><dc:type rdf:resource="http://purl.org/dc/dcmitype/StillImage"/></cc:Work></rdf:RDF></metadata><circle cx="18" cy="17.018" r="17" fill="#FFCB4C"/><circle cx="29.065" cy="21.215" r="5" fill="#ff7892"/><circle cx="7.065" cy="21.215" r="5" fill="#ff7892"/><circle cx="24.565" cy="14.715" r="5.5" fill="#f5f8fa"/><circle cx="11.565" cy="14.715" r="5.5" fill="#f5f8fa"/><circle cx="11.565" cy="14.715" r="2.5" fill="#292f33"/><circle cx="24.565" cy="14.715" r="2.5" fill="#292f33"/><path d="m22.122 26.426h-8c-0.552 0-1-0.447-1-1s0.448-1 1-1h8c0.553 0 1 0.447 1 1s-0.447 1-1 1zm7.9437-17.211c-0.305 0-0.604-0.138-0.801-0.4-2.64-3.521-6.061-3.598-6.206-3.6-0.55-6e-3 -0.994-0.456-0.991-1.005 3e-3 -0.551 0.447-0.995 0.997-0.995 0.184 0 4.537 0.05 7.8 4.4 0.332 0.442 0.242 1.069-0.2 1.4-0.18 0.135-0.39 0.2-0.599 0.2zm-24.002 0c-0.208 0-0.419-0.065-0.599-0.2-0.442-0.331-0.531-0.958-0.2-1.4 3.262-4.35 7.616-4.4 7.8-4.4 0.552 0 1 0.448 1 1 0 0.551-0.445 0.998-0.996 1-0.155 2e-3 -3.568 0.086-6.204 3.6-0.196 0.262-0.497 0.4-0.801 0.4z" fill="#664500"/><path d="m18.192 35.074s1.265-0.411 1.429-1.352c0.173-0.972-0.624-1.167-0.624-1.167s1.041-0.208 1.172-1.376c0.123-1.101-0.861-1.363-0.861-1.363s0.97-0.4 1.016-1.539c0.038-0.959-0.995-1.428-0.995-1.428s5.038-1.221 5.556-1.341c0.516-0.12 1.32-0.615 1.069-1.694-0.249-1.08-1.204-1.118-1.697-1.003-0.494 0.115-6.744 1.566-8.9 2.068l-1.439 0.334c-0.54 0.127-0.785-0.11-0.404-0.512 0.508-0.536 0.833-1.129 0.946-2.113 0.119-1.035-0.232-2.313-0.433-2.809-0.374-0.921-1.005-1.649-1.734-1.899-1.137-0.39-1.945 0.321-1.542 1.561 0.604 1.854 0.208 3.375-0.833 4.293-2.449 2.157-3.588 3.695-2.83 6.973 0.828 3.575 4.377 5.876 7.952 5.048z" fill="#f19020"/></svg>
