<?xml version="1.0" encoding="UTF-8"?>
<svg version="1.1" viewBox="0 0 36 36" xml:space="preserve" xmlns="http://www.w3.org/2000/svg"><path d="M35.07 32.558a1.92 1.92 0 0 0 .836-2.241c-.259-.81-1.07-1.317-1.921-1.317H32a1 1 0 0 1 0-2h1.5a1.5 1.5 0 1 0-.04-3c-.8.021-1.46-.623-1.46-1.423v-.003c0-.293.06-.578.176-.847a15.294 15.294 0 0 0 1.294-7.191C32.978 6.66 26.411.269 18.524.009 9.724-.281 2.5 6.766 2.5 15.5c0 2.371.548 4.609 1.5 6.619v1.88c0 1.086-.865 2.021-1.951 2a2 2 0 0 0-2.034 2.167C.101 29.225 1.069 30 2.133 30h8.039A1.17 1.17 0 0 1 11 32l-3.03.757a1.281 1.281 0 0 0 0 2.485c1.932.483 3.914.737 5.905.756l2.712.026c1.406.014 2.803-.31 4.029-1a8.289 8.289 0 0 1 5.642-.913c3.028.588 6.167.034 8.812-1.553z" fill="#FFCC4D"/><g stroke-width=".76962"><circle transform="rotate(12.809)" cx="29.481" cy="13.446" r="3.8481" fill="#ff7892"/><circle transform="rotate(12.809)" cx="12.549" cy="13.446" r="3.8481" fill="#ff7892"/><circle transform="rotate(12.809)" cx="26.018" cy="8.4431" r="4.2329" fill="#f5f8fa"/><circle transform="rotate(12.809)" cx="16.013" cy="8.4431" r="4.2329" fill="#f5f8fa"/><circle transform="rotate(12.809)" cx="16.013" cy="8.4431" r="1.924" fill="#292f33"/><circle transform="rotate(12.809)" cx="26.018" cy="8.4431" r="1.924" fill="#292f33"/><path d="m19.319 23.706-6.0037-1.365c-0.41426-0.09419-0.6742-0.50608-0.57985-0.92109 0.09436-0.41501 0.50683-0.67403 0.92109-0.57985l6.0037 1.365c0.41501 0.09436 0.6742 0.50608 0.57984 0.92109-0.09436 0.41501-0.50608 0.6742-0.92109 0.57985zm9.2463-12.894c-0.22889-0.05204-0.42974-0.20662-0.53288-0.43685-1.3805-3.0928-3.9347-3.7343-4.0432-3.7606-0.41173-0.098347-0.66816-0.51181-0.57224-0.9233 0.09625-0.413 0.50523-0.67045 0.91798-0.57661 0.13808 0.031394 3.3963 0.81163 5.1029 4.6329 0.17374 0.38835-7.81e-4 0.84354-0.38896 1.0165-0.15812 0.07061-0.32681 0.08355-0.48365 0.04789zm-18.013-4.0952c-0.1561-0.035489-0.30336-0.12027-0.4154-0.2523-0.27523-0.32382-0.23504-0.80955 0.088775-1.0848 3.1902-2.708 6.4663-2.0026 6.6044-1.9712 0.41426 0.094182 0.67403 0.50683 0.57984 0.92109-0.09402 0.41351-0.50424 0.67304-0.91808 0.58053-0.11666-0.024945-2.6923-0.54424-5.2701 1.6431-0.1918 0.16318-0.44123 0.21539-0.66937 0.16352z" fill="#664500"/></g></svg>
