<?xml version="1.0" encoding="UTF-8"?>
<svg version="1.1" viewBox="0 0 36 36" xmlns="http://www.w3.org/2000/svg" xmlns:cc="http://creativecommons.org/ns#" xmlns:dc="http://purl.org/dc/elements/1.1/" xmlns:rdf="http://www.w3.org/1999/02/22-rdf-syntax-ns#"><metadata><rdf:RDF><cc:Work rdf:about=""><dc:format>image/svg+xml</dc:format><dc:type rdf:resource="http://purl.org/dc/dcmitype/StillImage"/></cc:Work></rdf:RDF></metadata><circle cx="18.001" cy="18.003" r="18" fill="#aa8dd8"/><path d="m10.001 4.0031c-2.58 0-5.631-2.466-6.586-3.414-0.571-0.572-1.433-0.743-2.179-0.433-0.748 0.309-1.235 1.038-1.235 1.847 0 3.459 1.672 10 8 10 0.757 0 1.45-0.428 1.789-1.106l2-4c0.31-0.62 0.277-1.356-0.088-1.946-0.364-0.589-1.008-0.948-1.701-0.948zm24.766-3.847c-0.75-0.311-1.607-0.139-2.18 0.434-0.886 0.885-3.997 3.413-6.586 3.413-0.693 0-1.337 0.359-1.701 0.949-0.364 0.589-0.397 1.326-0.088 1.946l2 4c0.339 0.677 1.031 1.105 1.789 1.105 6.328 0 8-6.541 8-10 0-0.809-0.487-1.538-1.234-1.847z" fill="#aa8dd8"/><circle cx="29" cy="23" r="5" fill="#FF7892"/><circle cx="7" cy="23" r="5" fill="#FF7892"/><circle cx="24.5" cy="16.5" r="5.5" fill="#F5F8FA"/><circle cx="11.5" cy="16.5" r="5.5" fill="#F5F8FA"/><circle cx="11.5" cy="16.5" r="2.5" fill="#292F33"/><circle cx="24.5" cy="16.5" r="2.5" fill="#292F33"/><path d="M22 30h-8c-.552 0-1-.447-1-1s.448-1 1-1h8c.553 0 1 .447 1 1s-.447 1-1 1zm8.001-19c-.305 0-.604-.138-.801-.4-2.64-3.521-6.061-3.598-6.206-3.6-.55-.006-.994-.456-.991-1.005C22.006 5.444 22.45 5 23 5c.184 0 4.537.05 7.8 4.4.332.442.242 1.069-.2 1.4-.18.135-.39.2-.599.2zM5.999 11c-.208 0-.419-.065-.599-.2-.442-.331-.531-.958-.2-1.4C8.462 5.05 12.816 5 13 5c.552 0 1 .448 1 1 0 .551-.445.998-.996 1-.155.002-3.568.086-6.204 3.6-.196.262-.497.4-.801.4z" fill="#553986"/></svg>
