<?xml version="1.0" encoding="UTF-8"?>
<svg version="1.1" viewBox="0 0 36 36" xmlns="http://www.w3.org/2000/svg"><path d="M27.287 34.627c-.404 0-.806-.124-1.152-.371L18 28.422l-8.135 5.834c-.693.496-1.623.496-2.312-.008-.689-.499-.979-1.385-.721-2.194l3.034-9.792-8.062-5.681c-.685-.505-.97-1.393-.708-2.203.264-.808 1.016-1.357 1.866-1.363L12.947 13l3.179-9.549c.268-.809 1.023-1.353 1.874-1.353.851 0 1.606.545 1.875 1.353L23 13l10.036.015c.853.006 1.606.556 1.867 1.363.263.81-.022 1.698-.708 2.203l-8.062 5.681 3.034 9.792c.26.809-.033 1.695-.72 2.194-.347.254-.753.379-1.16.379z" fill="#FFAC33"/><g stroke-width=".55172"><circle cx="24.069" cy="21.927" r="2.7586" fill="#ff7892"/><circle cx="11.931" cy="21.927" r="2.7586" fill="#ff7892"/><circle cx="21.586" cy="18.34" r="3.0345" fill="#f5f8fa"/><circle cx="14.414" cy="18.34" r="3.0345" fill="#f5f8fa"/><circle cx="14.414" cy="18.34" r="1.3793" fill="#292f33"/><circle cx="21.586" cy="18.34" r="1.3793" fill="#292f33"/><path d="m20.207 25.789h-4.4138c-0.30455 0-0.55172-0.24662-0.55172-0.55172 0-0.3051 0.24717-0.55172 0.55172-0.55172h4.4138c0.3051 0 0.55172 0.24662 0.55172 0.55172 0 0.3051-0.24662 0.55172-0.55172 0.55172zm4.4143-10.483c-0.16828 0-0.33324-0.07614-0.44193-0.22069-1.4565-1.9426-3.344-1.9851-3.424-1.9862-0.30345-0.0033-0.54841-0.25158-0.54676-0.55448 0.0017-0.304 0.24662-0.54896 0.55007-0.54896 0.10152 0 2.5032 0.02759 4.3034 2.4276 0.18317 0.24386 0.13352 0.58979-0.11034 0.77241-0.09931 0.07448-0.21517 0.11034-0.33048 0.11034zm-13.242 0c-0.11476 0-0.23117-0.03586-0.33048-0.11034-0.24386-0.18262-0.29296-0.52855-0.11034-0.77241 1.7997-2.4 4.2019-2.4276 4.3034-2.4276 0.30455 0 0.55172 0.24717 0.55172 0.55172 0 0.304-0.24552 0.55062-0.54951 0.55172-0.08552 0.0011-1.9685 0.04745-3.4229 1.9862-0.10814 0.14455-0.2742 0.22069-0.44193 0.22069z" fill="#664500"/></g></svg>
