<?xml version="1.0" encoding="UTF-8"?>
<svg version="1.1" viewBox="0 0 36 36" xmlns="http://www.w3.org/2000/svg"><circle cx="18" cy="18" r="18" fill="#FFCC4D"/><path d="M6.001 11c-.552 0-1-.448-1-1 0-.551.445-.998.996-1 .156-.002 3.569-.086 6.205-3.6.331-.44.957-.532 1.4-.2.442.331.531.958.2 1.4-3.263 4.35-7.617 4.4-7.801 4.4zm24.986 2.393c.128.537-.204 1.077-.741 1.205-.536.128-1.074-.202-1.204-.737-.038-.151-.911-3.452-4.941-5.201-.505-.22-.739-.808-.519-1.315.22-.507.809-.739 1.315-.519 4.989 2.165 6.047 6.388 6.09 6.567z" fill="#65471B"/><circle cx="29" cy="23" r="5" fill="#ff7892"/><circle cx="7" cy="23" r="5" fill="#ff7892"/><circle cx="24.5" cy="16.5" r="5.5" fill="#f5f8fa"/><circle cx="11.5" cy="16.5" r="5.5" fill="#f5f8fa"/><ellipse cx="11.248" cy="17.431" rx="2.3358" ry="2.3097" fill="#292f33" stroke-width=".92908"/><circle cx="24.695" cy="15.617" r="2.5" fill="#292f33"/><path d="m22.445 31.73c-0.993 0-1.952-0.455-2.788-1.339-2.816-2.985-3.569-2.333-4.817-1.251-0.781 0.679-1.754 1.523-3.205 1.523-2.351 0-3.969-2.302-4.036-2.4-0.314-0.454-0.2-1.077 0.254-1.391 0.451-0.312 1.074-0.2 1.39 0.251 0.301 0.429 1.317 1.54 2.393 1.54 0.704 0 1.256-0.479 1.895-1.033 1.816-1.578 3.764-2.655 7.583 1.388 0.823 0.873 1.452 0.774 1.908 0.592 1.659-0.665 3.205-3.698 3.197-5.15-3e-3 -0.552 0.442-1.002 0.994-1.005h6e-3c0.55 0 0.997 0.444 1 0.995 0.012 2.103-1.854 5.976-4.454 7.017-0.443 0.175-0.885 0.262-1.32 0.263z" fill="#664500"/></svg>
