<?xml version="1.0" encoding="UTF-8"?>
<svg version="1.1" viewBox="0 0 36 36" xmlns="http://www.w3.org/2000/svg"><path d="M36 18c0 9.941-8.059 18-18 18S0 27.941 0 18 8.059 0 18 0s18 8.059 18 18" fill="#FFCC4D"/><circle cx="28.984" cy="22.185" r="5" fill="#ff7892"/><path d="m22 27c0 2.763-1.791 3-4 3-2.21 0-4-0.237-4-3 0-2.761 1.79-6 4-6 2.209 0 4 3.239 4 6z" fill="#664500"/><circle cx="6.9843" cy="22.185" r="5" fill="#ff7892"/><path d="M24 16h4v19l-4-.046V16zM8 35l4-.046V16H8v19z" fill="#5DADEC"/><circle cx="11.602" cy="15.628" r="5.5" fill="#f5f8fa"/><ellipse cx="18" cy="34" rx="18" ry="2" fill="#5DADEC"/><ellipse cx="18" cy="27" rx="3" ry="2" fill="#E75A70"/><circle cx="24.602" cy="15.628" r="5.5" fill="#f5f8fa"/><circle cx="11.602" cy="15.628" r="2.5" fill="#292f33"/><circle cx="24.602" cy="15.628" r="2.5" fill="#292f33"/><path d="m30.012 11.508c-0.305 0-0.604-0.138-0.801-0.4-2.64-3.521-6.061-3.598-6.206-3.6-0.55-6e-3 -0.994-0.456-0.991-1.005 3e-3 -0.551 0.447-0.995 0.997-0.995 0.184 0 4.537 0.05 7.8 4.4 0.332 0.442 0.242 1.069-0.2 1.4-0.18 0.135-0.39 0.2-0.599 0.2zm-24.002 0c-0.208 0-0.419-0.065-0.599-0.2-0.442-0.331-0.531-0.958-0.2-1.4 3.262-4.35 7.616-4.4 7.8-4.4 0.552 0 1 0.448 1 1 0 0.551-0.445 0.998-0.996 1-0.155 2e-3 -3.568 0.086-6.204 3.6-0.196 0.262-0.497 0.4-0.801 0.4z" fill="#664500"/></svg>
