<?xml version="1.0" encoding="UTF-8"?>
<svg version="1.1" viewBox="0 0 36 36" xmlns="http://www.w3.org/2000/svg" xmlns:cc="http://creativecommons.org/ns#" xmlns:dc="http://purl.org/dc/elements/1.1/" xmlns:rdf="http://www.w3.org/1999/02/22-rdf-syntax-ns#"><metadata><rdf:RDF><cc:Work rdf:about=""><dc:format>image/svg+xml</dc:format><dc:type rdf:resource="http://purl.org/dc/dcmitype/StillImage"/></cc:Work></rdf:RDF></metadata><path d="M36 18c0 9.941-8.059 18-18 18-9.94 0-18-8.059-18-18C0 8.06 8.06 0 18 0c9.941 0 18 8.06 18 18" fill="#FFCC4D"/><path d="m18.046 10.916c8.749 0 16.033 4.509 17.656 10.484 0.222-1.128 0.344-2.292 0.344-3.484 0-9.94-8.059-18-18-18-9.94 0-18 8.06-18 18 0 1.192 0.123 2.356 0.344 3.484 1.623-5.975 8.908-10.484 17.656-10.484z" fill="#bdddf4"/><circle cx="29" cy="23" r="5" fill="#FF7892"/><circle cx="7" cy="23" r="5" fill="#FF7892"/><path d="m23.387 27.066c-2.763-0.667-8.873-0.06-11.162 4.405-0.082 0.158-0.04 0.353 0.1 0.464 0.068 0.055 0.151 0.082 0.234 0.082 0.085 0 0.171-0.029 0.241-0.087 3.084-2.58 7.436-2.58 10.036-2.58 1.635 0 2.536 0 2.536-0.708s-0.705-1.268-1.985-1.576zm-12.609-10.424c1.381 0 2.5-1.119 2.5-2.5 0-1.252-0.923-2.28-2.124-2.462-0.79 0.089-1.526 0.348-2.178 0.736-0.43 0.449-0.698 1.055-0.698 1.726 0 1.381 1.119 2.5 2.5 2.5zm13 0c1.381 0 2.5-1.119 2.5-2.5 0-1.252-0.923-2.28-2.124-2.462-0.789 0.089-1.526 0.348-2.177 0.736-0.431 0.449-0.699 1.055-0.699 1.726 0 1.381 1.119 2.5 2.5 2.5z" fill="#65471b"/><circle cx="24.5" cy="16.5" r="5.5" fill="#F5F8FA"/><circle cx="11.5" cy="16.5" r="5.5" fill="#F5F8FA"/><circle cx="11.5" cy="16.5" r="2.5" fill="#292F33"/><circle cx="24.5" cy="16.5" r="2.5" fill="#292F33"/><path d="m30.315 10.495c-0.305 0-0.604-0.138-0.801-0.4-2.64-3.521-6.061-3.598-6.206-3.6-0.55-6e-3 -0.994-0.456-0.991-1.005 3e-3 -0.551 0.447-0.995 0.997-0.995 0.184 0 4.537 0.05 7.8 4.4 0.332 0.442 0.242 1.069-0.2 1.4-0.18 0.135-0.39 0.2-0.599 0.2zm-24.002 0c-0.208 0-0.419-0.065-0.599-0.2-0.442-0.331-0.531-0.958-0.2-1.4 3.262-4.35 7.616-4.4 7.8-4.4 0.552 0 1 0.448 1 1 0 0.551-0.445 0.998-0.996 1-0.155 2e-3 -3.568 0.086-6.204 3.6-0.196 0.262-0.497 0.4-0.801 0.4z" fill="#664500"/></svg>
