<?xml version="1.0" encoding="UTF-8"?>
<svg version="1.1" viewBox="0 0 36 36" xmlns="http://www.w3.org/2000/svg"><path d="M36 18c0 9.941-8.059 18-18 18-9.94 0-18-8.059-18-18C0 8.06 8.06 0 18 0c9.941 0 18 8.06 18 18" fill="#FFCC4D"/><circle cx="29" cy="23" r="5" fill="#FF7892"/><circle cx="7" cy="23" r="5" fill="#FF7892"/><circle cx="24.5" cy="16.5" r="5.5" fill="#F5F8FA"/><circle cx="11.5" cy="16.5" r="5.5" fill="#F5F8FA"/><circle cx="11.5" cy="16.5" r="2.5" fill="#292F33"/><circle cx="24.5" cy="16.5" r="2.5" fill="#292F33"/><path d="m30.001 11c-0.305 0-0.604-0.138-0.801-0.4-2.64-3.521-6.061-3.598-6.206-3.6-0.55-6e-3 -0.994-0.456-0.991-1.005 3e-3 -0.551 0.447-0.995 0.997-0.995 0.184 0 4.537 0.05 7.8 4.4 0.332 0.442 0.242 1.069-0.2 1.4-0.18 0.135-0.39 0.2-0.599 0.2zm-24.002 0c-0.208 0-0.419-0.065-0.599-0.2-0.442-0.331-0.531-0.958-0.2-1.4 3.262-4.35 7.616-4.4 7.8-4.4 0.552 0 1 0.448 1 1 0 0.551-0.445 0.998-0.996 1-0.155 2e-3 -3.568 0.086-6.204 3.6-0.196 0.262-0.497 0.4-0.801 0.4z" fill="#664500"/><path d="m29.503 23.52c0.323-0.749 0.461-1.257 0.466-1.277 0.134-0.534-0.19-1.075-0.725-1.21-0.536-0.136-1.077 0.188-1.215 0.723-0.074 0.295-1.948 6.3619-10.029 6.3619s-9.955-6.0669-10.03-6.3629c-0.138-0.534-0.679-0.858-1.215-0.723-0.534 0.135-0.858 0.676-0.725 1.21 0.022 0.088 2.301 8.758 11.97 8.758 1.65 0 3.07-0.266 4.315-0.685 4.33-1.458 6.374-4.91 7.188-6.795z" fill="#664500"/></svg>
