<?xml version="1.0" encoding="UTF-8"?>
<svg version="1.1" viewBox="0 0 36 36" xmlns="http://www.w3.org/2000/svg"><path d="M1 28h34v5H1z" fill="#C1694F"/><path d="m36 35c0 0.553-0.447 1-1 1s-1-0.447-1-1v-14c0-0.553 0.447-1 1-1s1 0.447 1 1v14zm-36 0c0 0.553 0.447 1 1 1s1-0.447 1-1v-22c0-0.552-0.447-1-1-1s-1 0.448-1 1v22z" fill="#C1694F"/><path d="M32 23H4c-1.104 0-2 .896-2 2v4h32v-4c0-1.104-.896-2-2-2z" fill="#269"/><path d="M32 23H4c-1.104 0-2 .896-2 2v4h32v-4c0-1.104-.896-2-2-2z" fill="#55ACEE"/><path d="m2.126 19.938c-0.261 1.073 1.485 2.419 3.9 3.006s4.584 0.192 4.846-0.881c0.261-1.073-1.485-2.419-3.9-3.007-2.415-0.587-4.585-0.192-4.846 0.882z" fill="#5C913B"/><g transform="matrix(.17184 -.29849 .29849 .17184 6.6092 19.121)"><path d="m36 18c0 9.941-8.059 18-18 18-9.94 0-18-8.059-18-18 0-9.94 8.06-18 18-18 9.941 0 18 8.06 18 18" fill="#ffcc4d"/><circle cx="29" cy="23" r="5" fill="#ff7892"/><circle cx="7" cy="23" r="5" fill="#ff7892"/><circle cx="24.5" cy="16.5" r="5.5" fill="#f5f8fa"/><circle cx="11.5" cy="16.5" r="5.5" fill="#f5f8fa"/><circle cx="11.5" cy="16.5" r="2.5" fill="#292f33"/><circle cx="24.5" cy="16.5" r="2.5" fill="#292f33"/><path d="m22 30h-8c-0.552 0-1-0.447-1-1s0.448-1 1-1h8c0.553 0 1 0.447 1 1s-0.447 1-1 1zm8.001-19c-0.305 0-0.604-0.138-0.801-0.4-2.64-3.521-6.061-3.598-6.206-3.6-0.55-6e-3 -0.994-0.456-0.991-1.005 3e-3 -0.551 0.447-0.995 0.997-0.995 0.184 0 4.537 0.05 7.8 4.4 0.332 0.442 0.242 1.069-0.2 1.4-0.18 0.135-0.39 0.2-0.599 0.2zm-24.002 0c-0.208 0-0.419-0.065-0.599-0.2-0.442-0.331-0.531-0.958-0.2-1.4 3.262-4.35 7.616-4.4 7.8-4.4 0.552 0 1 0.448 1 1 0 0.551-0.445 0.998-0.996 1-0.155 2e-3 -3.568 0.086-6.204 3.6-0.196 0.262-0.497 0.4-0.801 0.4z" fill="#664500"/></g></svg>
