<?xml version="1.0" encoding="UTF-8"?>
<svg version="1.1" viewBox="0 0 36 36" xmlns="http://www.w3.org/2000/svg"><path d="M36 18c0 9.941-8.059 18-18 18-9.94 0-18-8.059-18-18C0 8.06 8.06 0 18 0c9.941 0 18 8.06 18 18" fill="#FFCC4D"/><circle cx="29" cy="23" r="5" fill="#FF7892"/><circle cx="7" cy="23" r="5" fill="#FF7892"/><circle cx="24.5" cy="16.5" r="5.5" fill="#F5F8FA"/><circle cx="11.5" cy="16.5" r="5.5" fill="#F5F8FA"/><circle cx="11.5" cy="16.5" r="2.5" fill="#292F33"/><circle cx="24.5" cy="16.5" r="2.5" fill="#292F33"/><g fill="#664500"><path d="m27.524 10.03c-0.14875 0.26627-0.41504 0.46-0.73985 0.5042-4.3614 0.58757-6.097 3.5366-6.1695 3.6622-0.27347 0.47723-0.88286 0.64538-1.3607 0.37502-0.47957-0.27134-0.65065-0.8755-0.38241-1.3557 0.08974-0.16063 2.2563-3.9365 7.6453-4.6636 0.54779-0.074278 1.0513 0.31008 1.1247 0.85738 0.03007 0.22298-0.0156 0.43801-0.11753 0.62047z"/><path d="m25.326 31.469c-0.045-0.179-1.168-4.379-7.485-4.379-6.318 0-7.44 4.2-7.485 4.379-0.055 0.217 0.043 0.442 0.237 0.554 0.195 0.109 0.439 0.079 0.6-0.077 0.019-0.019 1.954-1.856 6.648-1.856s6.63 1.837 6.648 1.855c0.096 0.095 0.224 0.145 0.352 0.145 0.084 0 0.169-0.021 0.246-0.064 0.196-0.112 0.294-0.339 0.239-0.557z"/><path d="m8.9542 9.9109c-0.094352-0.18537-0.13214-0.4029-0.093478-0.62455 0.094487-0.54406 0.6129-0.90779 1.157-0.8133 5.3564 0.93384 7.376 4.7914 7.4595 4.9554 0.2504 0.49194 0.05436 1.0944-0.43758 1.3448-0.49105 0.24994-1.0913 0.05613-1.343-0.43401-0.072093-0.13723-1.6952-3.1408-6.0226-3.896-0.3224-0.055827-0.58193-0.26148-0.71983-0.5324z"/></g></svg>
