<?xml version="1.0" encoding="UTF-8"?>
<svg version="1.1" viewBox="0 0 36 36" xmlns="http://www.w3.org/2000/svg" xmlns:cc="http://creativecommons.org/ns#" xmlns:dc="http://purl.org/dc/elements/1.1/" xmlns:rdf="http://www.w3.org/1999/02/22-rdf-syntax-ns#"><metadata><rdf:RDF><cc:Work rdf:about=""><dc:format>image/svg+xml</dc:format><dc:type rdf:resource="http://purl.org/dc/dcmitype/StillImage"/></cc:Work></rdf:RDF></metadata><g stroke-width=".85578"><path d="m33.692 20.489c0 8.5073-6.8967 15.404-15.404 15.404-8.5064 0-15.404-6.8967-15.404-15.404 0-8.5064 6.8976-15.404 15.404-15.404 8.5073 0 15.404 6.8976 15.404 15.404" fill="#ffcc4d"/><circle cx="27.701" cy="24.768" r="4.2789" fill="#ff7892"/><circle cx="8.8741" cy="24.768" r="4.2789" fill="#ff7892"/><circle cx="23.85" cy="19.205" r="4.7068" fill="#f5f8fa"/><circle cx="12.725" cy="19.205" r="4.7068" fill="#f5f8fa"/><circle cx="12.725" cy="19.205" r="2.1394" fill="#292f33"/><circle cx="23.85" cy="19.205" r="2.1394" fill="#292f33"/><path d="m21.711 30.758h-6.8462c-0.47239 0-0.85578-0.38253-0.85578-0.85578s0.38339-0.85578 0.85578-0.85578h6.8462c0.47325 0 0.85578 0.38253 0.85578 0.85578s-0.38253 0.85578-0.85578 0.85578zm6.8471-16.26c-0.26101 0-0.51689-0.1181-0.68548-0.34231-2.2593-3.0132-5.1869-3.0791-5.311-3.0808-0.47068-0.0051-0.85064-0.39024-0.84808-0.86006 0.0026-0.47153 0.38253-0.8515 0.85321-0.8515 0.15746 0 3.8827 0.042789 6.6751 3.7654 0.28412 0.37825 0.2071 0.91483-0.17116 1.1981-0.15404 0.11553-0.33375 0.17116-0.51261 0.17116zm-20.54 0c-0.178 0-0.35857-0.05563-0.51261-0.17116-0.37825-0.28326-0.45442-0.81984-0.17116-1.1981 2.7916-3.7226 6.5176-3.7654 6.6751-3.7654 0.47239 0 0.85578 0.38339 0.85578 0.85578 0 0.47154-0.38082 0.85407-0.85236 0.85578-0.13264 0.0017-3.0534 0.0736-5.3093 3.0808-0.16773 0.22421-0.42532 0.34231-0.68548 0.34231z" fill="#664500"/></g><path d="m32.43 5.1882c-1.19 1.441-3.182 1.951-5.076 2.121-0.318-1.538-1.683-7.251-4.424-7.251-2.403 0-3.269 1.091-4.5 1.091s-2.097-1.091-4.5-1.091c-2.741 0-4.106 5.713-4.424 7.251-1.894-0.17-3.886-0.681-5.076-2.121-2.153-2.606-5-0.686-3.558 2.174 2.278 4.517 7.788 7.696 17.558 7.696 9.769 0 15.279-3.179 17.558-7.696 1.442-2.86-1.405-4.78-3.558-2.174z" fill="#664500"/><path d="m21.93 2.0582c-1.869 0-2.543 0.964-3.5 0.964s-1.631-0.964-3.5-0.964c-2.463 0-3.5 6.75-3.5 6.75s1.282 2.25 7 2.25c5.719 0 7-2.25 7-2.25s-1.037-6.75-3.5-6.75z" fill="#825d0e"/><path d="m11.43 5.0582s2.074 2 7 2c4.927 0 7-2 7-2v2s-2.222 2-7 2-7-2-7-2z" fill="#664500"/></svg>
