<?xml version="1.0" encoding="UTF-8"?>
<svg version="1.1" viewBox="0 0 36 36" xmlns="http://www.w3.org/2000/svg"><path d="M36 18c0 9.941-8.059 18-18 18-9.94 0-18-8.059-18-18C0 8.06 8.06 0 18 0c9.941 0 18 8.06 18 18" fill="#FFCC4D"/><circle cx="29" cy="23" r="5" fill="#FF7892"/><circle cx="7" cy="23" r="5" fill="#FF7892"/><circle cx="26.444" cy="16.443" r="5.5" fill="#f5f8fa"/><circle cx="10.109" cy="16.16" r="5.5" fill="#f5f8fa"/><circle cx="11.5" cy="16.5" r="2.5" fill="#292F33"/><circle cx="24.5" cy="16.5" r="2.5" fill="#292F33"/><path d="M22 30h-8c-.552 0-1-.447-1-1s.448-1 1-1h8c.553 0 1 .447 1 1s-.447 1-1 1zm8.001-19c-.305 0-.604-.138-.801-.4-2.64-3.521-6.061-3.598-6.206-3.6-.55-.006-.994-.456-.991-1.005C22.006 5.444 22.45 5 23 5c.184 0 4.537.05 7.8 4.4.332.442.242 1.069-.2 1.4-.18.135-.39.2-.599.2zM5.999 11c-.208 0-.419-.065-.599-.2-.442-.331-.531-.958-.2-1.4C8.462 5.05 12.816 5 13 5c.552 0 1 .448 1 1 0 .551-.445.998-.996 1-.155.002-3.568.086-6.204 3.6-.196.262-.497.4-.801.4z" fill="#664500"/><path d="m34.767 12.118c-0.171-0.166-1.267 0.274-2.376-0.291-2.288-1.166-8.07-2.291-11.834 0.376-0.403 0.285-2.087 0.333-2.558 0.313-0.471 0.021-2.155-0.027-2.558-0.313-3.763-2.667-9.545-1.542-11.833-0.376-1.109 0.565-2.205 0.125-2.376 0.291-0.247 0.239-0.247 1.196 1e-3 1.436 0.246 0.239 1.477 0.515 1.722 1.232 0.247 0.718 0.249 4.958 2.213 6.424 1.839 1.372 6.129 1.785 8.848 0.238 2.372-1.349 2.289-4.189 2.724-5.881 0.155-0.603 0.592-0.907 1.26-0.907s1.105 0.304 1.26 0.907c0.435 1.691 0.351 4.532 2.724 5.881 2.719 1.546 7.009 1.133 8.847-0.238 1.965-1.465 1.967-5.706 2.213-6.424 0.245-0.717 1.476-0.994 1.722-1.232 0.248-0.24 0.249-1.197 1e-3 -1.436zm-20.194 3.65c-0.077 1.105-0.274 3.227-1.597 3.98-0.811 0.462-1.868 0.743-2.974 0.743h-1e-3c-1.225 0-2.923-0.347-3.587-0.842-0.83-0.619-1.146-3.167-1.265-4.12-0.076-0.607-0.28-2.09 0.388-2.318 1.06-0.361 2.539-0.643 4.052-0.643 0.693 0 3.021 0.043 4.155 0.741 1.005 0.617 0.872 1.851 0.829 2.459zm16.278-0.253c-0.119 0.954-0.435 3.515-1.265 4.134-0.664 0.495-2.362 0.842-3.587 0.842h-1e-3c-1.107 0-2.163-0.281-2.975-0.743-1.323-0.752-1.52-2.861-1.597-3.966-0.042-0.608-0.176-1.851 0.829-2.468 1.135-0.698 3.462-0.746 4.155-0.746 1.513 0 2.991 0.277 4.052 0.638 0.668 0.228 0.465 1.702 0.389 2.309z" fill="#292f33"/><path d="m18 29.991c-0.148 0-0.291-0.011-0.438-0.016v4.516h0.875v-4.517c-0.145 5e-3 -0.289 0.017-0.437 0.017z" fill="#65471b"/><path d="m22 30c-1.3348 0-2.339-0.01529-3.563 0v4.492h1.563c1.1 0 2-0.9 2-2zm-8 0h3.562l1e-3 4.492h-1.563c-1.1 0-2-0.9-2-2z" fill="#fff"/></svg>
