<?xml version="1.0" encoding="UTF-8"?>
<svg version="1.1" viewBox="0 0 36 36" xmlns="http://www.w3.org/2000/svg"><path d="M36 18c0 9.941-8.059 18-18 18-9.94 0-18-8.059-18-18C0 8.06 8.06 0 18 0c9.941 0 18 8.06 18 18" fill="#FFCC4D"/><circle cx="29" cy="23" r="5" fill="#FF7892"/><circle cx="7" cy="23" r="5" fill="#FF7892"/><circle cx="24.5" cy="16.5" r="5.5" fill="#F5F8FA"/><circle cx="11.5" cy="16.5" r="5.5" fill="#F5F8FA"/><circle cx="11.5" cy="16.5" r="2.5" fill="#292F33"/><circle cx="24.5" cy="16.5" r="2.5" fill="#292F33"/><path d="M22 30h-8c-.552 0-1-.447-1-1s.448-1 1-1h8c.553 0 1 .447 1 1s-.447 1-1 1zm8.001-19c-.305 0-.604-.138-.801-.4-2.64-3.521-6.061-3.598-6.206-3.6-.55-.006-.994-.456-.991-1.005C22.006 5.444 22.45 5 23 5c.184 0 4.537.05 7.8 4.4.332.442.242 1.069-.2 1.4-.18.135-.39.2-.599.2zM5.999 11c-.208 0-.419-.065-.599-.2-.442-.331-.531-.958-.2-1.4C8.462 5.05 12.816 5 13 5c.552 0 1 .448 1 1 0 .551-.445.998-.996 1-.155.002-3.568.086-6.204 3.6-.196.262-.497.4-.801.4z" fill="#664500"/><path d="m15.706 15.287c0-1.2609-1.0224-2.2826-2.2826-2.2826-0.76534 0-1.4405 0.37783-1.8549 0.95538-0.41434-0.57755-1.0895-0.95538-1.8549-0.95538-1.2609 0-2.2826 1.0217-2.2826 2.2826 0 0.17885 0.022357 0.35174 0.061108 0.51868 0.31746 1.9696 2.5069 4.0473 4.0764 4.6181 1.5694-0.57084 3.7589-2.6485 4.0756-4.6174 0.0395-0.16768 0.06185-0.34057 0.06185-0.51942z" fill="#dd2e44" stroke-width=".74522"/><path d="m28.655 15.415c0-1.2609-1.0224-2.2826-2.2826-2.2826-0.76534 0-1.4405 0.37783-1.8549 0.95538-0.41434-0.57755-1.0895-0.95538-1.8549-0.95538-1.2609 0-2.2826 1.0217-2.2826 2.2826 0 0.17885 0.02236 0.35174 0.06111 0.51868 0.31746 1.9696 2.5069 4.0473 4.0764 4.6181 1.5694-0.57084 3.7589-2.6485 4.0756-4.6174 0.0395-0.16768 0.06185-0.34057 0.06185-0.51942z" fill="#dd2e44" stroke-width=".74522"/></svg>
