<?xml version="1.0" encoding="UTF-8"?>
<svg version="1.1" viewBox="0 0 36 36" xmlns="http://www.w3.org/2000/svg" xmlns:cc="http://creativecommons.org/ns#" xmlns:dc="http://purl.org/dc/elements/1.1/" xmlns:rdf="http://www.w3.org/1999/02/22-rdf-syntax-ns#"><metadata><rdf:RDF><cc:Work rdf:about=""><dc:format>image/svg+xml</dc:format><dc:type rdf:resource="http://purl.org/dc/dcmitype/StillImage"/></cc:Work></rdf:RDF></metadata><path d="M36 18c0 9.941-8.059 18-18 18-9.94 0-18-8.059-18-18C0 8.06 8.06 0 18 0c9.941 0 18 8.06 18 18" fill="#FFCC4D"/><circle cx="29" cy="23" r="5" fill="#FF7892"/><circle cx="7" cy="23" r="5" fill="#FF7892"/><circle cx="24.5" cy="16.5" r="5.5" fill="#F5F8FA"/><circle cx="11.5" cy="16.5" r="5.5" fill="#F5F8FA"/><circle cx="11.5" cy="16.5" r="2.5" fill="#292F33"/><circle cx="24.5" cy="16.5" r="2.5" fill="#292F33"/><path d="m30.001 11c-0.305 0-0.604-0.138-0.801-0.4-2.64-3.521-6.061-3.598-6.206-3.6-0.55-6e-3 -0.994-0.456-0.991-1.005 3e-3 -0.551 0.447-0.995 0.997-0.995 0.184 0 4.537 0.05 7.8 4.4 0.332 0.442 0.242 1.069-0.2 1.4-0.18 0.135-0.39 0.2-0.599 0.2zm-24.002 0c-0.208 0-0.419-0.065-0.599-0.2-0.442-0.331-0.531-0.958-0.2-1.4 3.262-4.35 7.616-4.4 7.8-4.4 0.552 0 1 0.448 1 1 0 0.551-0.445 0.998-0.996 1-0.155 2e-3 -3.568 0.086-6.204 3.6-0.196 0.262-0.497 0.4-0.801 0.4z" fill="#664500"/><path d="m27.047 25.379c-0.178-0.161-0.444-0.171-0.635-0.029-0.039 0.029-3.922 2.9-8.7 2.9-4.766 0-8.662-2.871-8.7-2.9-0.191-0.142-0.457-0.13-0.635 0.029-0.177 0.16-0.217 0.424-0.094 0.628 0.129 0.215 3.217 5.243 9.429 5.243s9.301-5.028 9.429-5.243c0.123-0.205 0.084-0.468-0.094-0.628z" fill="#664500"/></svg>
