<?xml version="1.0" encoding="UTF-8"?>
<svg version="1.1" viewBox="0 0 36 36" xmlns="http://www.w3.org/2000/svg"><path d="M36 18c0 9.941-8.059 18-18 18-9.94 0-18-8.059-18-18C0 8.06 8.06 0 18 0c9.941 0 18 8.06 18 18" fill="#FFCC4D"/><path d="m17.999 25.906c0.412 1.335 1.156 2.629 2.5 2.629 2.619 0 2.968-4.912 2.999-5.472 0.027-0.274-0.193-0.509-0.468-0.527-0.274-0.017-0.511 0.19-0.53 0.464-2e-3 0.035-0.299 3.535-2.001 3.535s-1.999-3.5-2.001-3.535c-1e-3 -0.013-8e-3 -0.023-0.01-0.036-6e-3 -0.053-0.018-0.102-0.041-0.149l-9e-3 -0.015c-0.027-0.048-0.059-0.091-0.1-0.127-0.015-0.014-0.031-0.023-0.047-0.035-0.032-0.023-0.064-0.044-0.103-0.06-0.029-0.012-0.061-0.018-0.092-0.024-0.023-4e-3 -0.044-0.016-0.067-0.018-0.011 0-0.021 4e-3 -0.031 4e-3s-0.021-5e-3 -0.031-4e-3c-0.024 1e-3 -0.045 0.013-0.068 0.018-0.031 6e-3 -0.061 0.011-0.09 0.023-0.03 0.013-0.057 0.031-0.084 0.049-0.024 0.017-0.05 0.032-0.071 0.052-0.023 0.023-0.041 0.05-0.061 0.078-0.017 0.024-0.034 0.046-0.047 0.074-0.015 0.032-0.021 0.066-0.027 0.101-6e-3 0.024-0.018 0.044-0.02 0.069-1e-3 0.035-0.298 3.535-2 3.535s-1.999-3.5-2.001-3.535c-0.02-0.274-0.257-0.481-0.53-0.464-0.265 0.017-0.469 0.237-0.469 0.499l1e-3 0.028c0.031 0.56 0.38 5.472 2.999 5.472 1.344 0 2.088-1.294 2.5-2.629z" fill="#664500"/><path d="m30.6 18.2c-0.114-0.085-1.931-1.426-4.646-2.344-1.5995-0.39302-1.6549-0.42575-0.313-1.32 1.802-0.52 3.334-0.536 3.361-0.536 0.551-2e-3 0.998-0.45 0.997-1.002-1e-3 -0.551-0.447-0.998-0.999-0.998-0.221 0-5.451 0.038-8.707 3.293-0.286 0.286-0.372 0.716-0.217 1.09 0.154 0.373 0.52 0.617 0.924 0.617 4.59 0 8.363 2.773 8.401 2.801 0.18 0.134 0.39 0.199 0.598 0.199 0.305 0 0.605-0.139 0.802-0.401 0.33-0.443 0.24-1.068-0.201-1.399zm-14.893-2.907c-3.255-3.255-8.486-3.293-8.707-3.293-0.552 0-0.999 0.447-0.999 0.998-1e-3 0.552 0.446 1 0.998 1.002 0.026 0 1.558 0.016 3.361 0.536 1.596 0.76814 1.5984 0.75834-0.313 1.32-2.716 0.918-4.533 2.259-4.647 2.344-0.442 0.331-0.531 0.958-0.2 1.4 0.196 0.262 0.497 0.4 0.801 0.4 0.208 0 0.419-0.065 0.599-0.2 0.037-0.028 3.787-2.8 8.4-2.8 0.404 0 0.769-0.244 0.924-0.617 0.155-0.374 0.069-0.804-0.217-1.09z" fill="#66471b"/><path d="m5.5895 19.86c-0.33056-0.15008-0.54554-0.48462-0.54554-0.84895 0-0.51691 0.1981-0.72482 1.356-1.4232 1.2117-0.73073 2.5368-1.3322 3.8772-1.7598 1.2659-0.40383 1.3886-0.47677 1.1913-0.70837-0.05342-0.06272-0.33679-0.23287-0.62971-0.37812-0.74613-0.36998-2.0577-0.65409-3.4389-0.74489-0.70377-0.046269-0.86469-0.099795-1.1073-0.36833-0.34631-0.38332-0.34631-0.87427 0-1.2576 0.27927-0.30912 0.49315-0.36611 1.2095-0.32228 2.4421 0.14942 4.9293 0.92261 6.6978 2.0822 1.175 0.77038 1.7735 1.4016 1.7702 1.8667-0.0021 0.28641-0.19747 0.63795-0.44603 0.80244-0.21078 0.13949-0.29506 0.1545-1.1349 0.20218-1.9919 0.11308-3.8629 0.6349-5.8709 1.6374-0.40633 0.20286-0.98491 0.52584-1.2857 0.71773-1.0335 0.6593-1.1918 0.70772-1.6431 0.50279z" fill="#664500" stroke-width=".057143"/><path d="m29.567 19.839c-0.1389-0.072902-0.48397-0.28116-0.76683-0.46278-0.70489-0.45263-2.306-1.229-3.1818-1.5428-1.3832-0.49566-2.6255-0.75268-4.0192-0.83155-1.0697-0.06054-1.2321-0.12793-1.4778-0.61317-0.22834-0.45093-0.04004-0.89572 0.62168-1.4684 1.7277-1.4953 4.1727-2.4707 7.0319-2.8051 1.3146-0.15378 1.612-0.11183 1.9519 0.27527 0.32701 0.37244 0.31933 0.86364-0.01936 1.2385-0.2426 0.26853-0.40352 0.32206-1.1073 0.36833-0.71057 0.04672-1.5357 0.17021-2.3143 0.34638-0.5313 0.12021-0.68848 0.1831-1.0157 0.40638-0.39656 0.27062-0.61292 0.49223-0.61292 0.62779 0 0.10982 0.26678 0.23264 0.8414 0.38733 1.4449 0.38898 3.783 1.5121 4.972 2.3883 0.36658 0.27014 0.4723 0.46351 0.4723 0.86396 0 0.38947-0.16026 0.64759-0.51257 0.82557-0.32361 0.16348-0.54636 0.16246-0.86346-4e-3z" fill="#664500" stroke-width=".057143"/><path d="m21.229 3.947c0 0.24 0.03 0.472 0.082 0.696 0.425 2.643 3.364 5.431 5.47 6.197 1.665-0.605 3.846-2.476 4.898-4.539-2.089-2.44-4.819-4.314-7.929-5.362-1.432 0.257-2.521 1.502-2.521 3.008zm-7.486 25.131c0.057-0.242 0.09-0.494 0.09-0.754 0-1.833-1.486-3.319-3.319-3.319-1.113 0-2.094 0.549-2.697 1.389-0.602-0.839-1.584-1.389-2.697-1.389-1.241 0-2.311 0.689-2.88 1.698 1.824 3.295 4.65 5.957 8.068 7.574 1.637-1.351 3.131-3.307 3.435-5.199zm20.558-3.436c-0.282-0.95-1.152-1.647-2.194-1.647-0.771 0-1.451 0.38-1.868 0.962-0.417-0.582-1.097-0.962-1.868-0.962-1.27 0-2.299 1.029-2.299 2.299 0 0.18 0.023 0.354 0.062 0.522 0.307 1.905 2.348 3.896 3.909 4.561 1.776-1.6 3.231-3.547 4.258-5.735z" fill="#ffac33"/><path d="m33.625 3.269c0-1.692-1.372-3.063-3.063-3.063-1.027 0-1.933 0.507-2.489 1.282-0.556-0.775-1.462-1.282-2.489-1.282-1.692 0-3.063 1.371-3.063 3.063 0 0.24 0.03 0.472 0.082 0.696 0.426 2.643 3.364 5.431 5.47 6.197 2.106-0.766 5.044-3.554 5.469-6.196 0.053-0.225 0.083-0.457 0.083-0.697zm-21.417 25.139c0-1.833-1.486-3.319-3.319-3.319-1.113 0-2.094 0.549-2.697 1.389-0.602-0.84-1.584-1.389-2.697-1.389-1.833 0-3.319 1.486-3.319 3.319 0 0.26 0.033 0.511 0.089 0.754 0.461 2.863 3.644 5.884 5.926 6.714 2.282-0.829 5.465-3.85 5.926-6.713 0.058-0.244 0.091-0.496 0.091-0.755zm23.74-2.281c0-1.27-1.029-2.299-2.299-2.299-0.771 0-1.451 0.38-1.868 0.962-0.417-0.582-1.097-0.962-1.868-0.962-1.27 0-2.299 1.029-2.299 2.299 0 0.18 0.023 0.354 0.062 0.522 0.319 1.983 2.524 4.076 4.105 4.65 1.58-0.574 3.786-2.667 4.104-4.65 0.04-0.168 0.063-0.342 0.063-0.522z" fill="#dd2e44"/></svg>
