<?xml version="1.0" encoding="UTF-8"?>
<svg version="1.1" viewBox="0 0 36 36" xmlns="http://www.w3.org/2000/svg"><circle cx="18" cy="18" r="18" fill="#FFCC4D"/><path d="M18 26.591c-.148 0-.291-.011-.438-.016v4.516h.875v-4.517c-.145.005-.289.017-.437.017z" fill="#65471B"/><path d="M22 26c.016-.004-1.45.378-2.446.486-.366.042-.737.076-1.117.089v4.517H20c1.1 0 2-.9 2-2V26zm-8 0c-.016-.004 1.45.378 2.446.486.366.042.737.076 1.117.089v4.517H16c-1.1 0-2-.9-2-2V26z" fill="#FFF"/><path d="m34.78 11.244c-0.171-0.166-1.267 0.274-2.376-0.291-2.288-1.166-8.07-2.291-11.834 0.376-0.403 0.285-2.087 0.333-2.558 0.313-0.471 0.021-2.155-0.027-2.558-0.313-3.763-2.667-9.545-1.542-11.833-0.376-1.109 0.565-2.205 0.125-2.376 0.291-0.247 0.239-0.247 1.196 1e-3 1.436 0.246 0.239 1.477 0.515 1.722 1.232 0.247 0.718 0.249 4.958 2.213 6.424 1.839 1.372 6.129 1.785 8.848 0.238 2.372-1.349 2.289-4.189 2.724-5.881 0.155-0.603 0.592-0.907 1.26-0.907s1.105 0.304 1.26 0.907c0.435 1.691 0.351 4.532 2.724 5.881 2.719 1.546 7.009 1.133 8.847-0.238 1.965-1.465 1.967-5.706 2.213-6.424 0.245-0.717 1.476-0.994 1.722-1.232 0.248-0.24 0.249-1.197 1e-3 -1.436zm-20.194 3.65c-0.077 1.105-0.274 3.227-1.597 3.98-0.811 0.462-1.868 0.743-2.974 0.743h-1e-3c-1.225 0-2.923-0.347-3.587-0.842-0.83-0.619-1.146-3.167-1.265-4.12-0.076-0.607-0.28-2.09 0.388-2.318 1.06-0.361 2.539-0.643 4.052-0.643 0.693 0 3.021 0.043 4.155 0.741 1.005 0.617 0.872 1.851 0.829 2.459zm16.278-0.253c-0.119 0.954-0.435 3.515-1.265 4.134-0.664 0.495-2.362 0.842-3.587 0.842h-1e-3c-1.107 0-2.163-0.281-2.975-0.743-1.323-0.752-1.52-2.861-1.597-3.966-0.042-0.608-0.176-1.851 0.829-2.468 1.135-0.698 3.462-0.746 4.155-0.746 1.513 0 2.991 0.277 4.052 0.638 0.668 0.228 0.465 1.702 0.389 2.309z" fill="#292f33"/><g fill="#664500"><path d="m30.538 15.253c-0.176-0.143-0.426-0.148-0.61-0.014-0.012 9e-3 -1.261 0.902-3.702 0.902-2.44 0-3.69-0.893-3.7-0.9-0.183-0.137-0.434-0.133-0.611 9e-3 -0.178 0.142-0.238 0.386-0.146 0.594 0.06 0.135 1.5 3.297 4.457 3.297 2.958 0 4.397-3.162 4.457-3.297 0.092-0.207 0.032-0.449-0.145-0.591z"/><path d="m14.181 15.194c-0.176-0.143-0.427-0.147-0.61-0.014-0.012 9e-3 -1.26 0.902-3.702 0.902-2.441 0-3.69-0.893-3.7-0.9-0.183-0.137-0.435-0.133-0.611 9e-3 -0.178 0.142-0.238 0.386-0.146 0.594 0.06 0.135 1.5 3.297 4.457 3.297 2.958 0 4.397-3.162 4.457-3.297 0.092-0.207 0.032-0.449-0.145-0.591z"/><path d="m21.907 27.1h-8c-0.552 0-1-0.447-1-1s0.448-1 1-1h8c0.553 0 1 0.447 1 1s-0.447 1-1 1z"/><path d="m6.3433 9.246c-0.552 0-1-0.448-1-1 0-0.551 0.445-0.998 0.996-1 0.156-2e-3 3.569-0.086 6.205-3.6 0.331-0.44 0.957-0.532 1.4-0.2 0.442 0.331 0.531 0.958 0.2 1.4-3.263 4.35-7.617 4.4-7.801 4.4zm24 0c-0.184 0-4.537-0.05-7.8-4.4-0.332-0.442-0.242-1.069 0.2-1.4 0.441-0.333 1.067-0.242 1.399 0.2 2.641 3.521 6.061 3.599 6.206 3.6 0.55 6e-3 0.994 0.456 0.991 1.005-2e-3 0.551-0.446 0.995-0.996 0.995z"/></g></svg>
