<?xml version="1.0" encoding="UTF-8"?>
<svg version="1.1" viewBox="0 0 36 36" xmlns="http://www.w3.org/2000/svg"><circle cx="18" cy="18" r="18" fill="#FFCC4D"/><path d="m27.335 20.702c-0.178-0.161-0.444-0.171-0.635-0.029-0.039 0.029-3.922 2.9-8.7 2.9-4.766 0-8.662-2.871-8.7-2.9-0.191-0.142-0.457-0.13-0.635 0.029-0.177 0.16-0.217 0.424-0.094 0.628 0.129 0.215 3.217 5.243 9.429 5.243s9.301-5.028 9.429-5.243c0.123-0.205 0.084-0.468-0.094-0.628z" fill="#664500"/><path d="m18 23.664c-0.148 0-0.291-0.011-0.438-0.016v4.516h0.875v-4.517c-0.145 5e-3 -0.289 0.017-0.437 0.017z" fill="#65471b"/><path d="m22 23.073c0.016-4e-3 -1.45 0.378-2.446 0.486-0.366 0.042-0.737 0.076-1.117 0.089v4.517h1.563c1.1 0 2-0.9 2-2zm-8 0c-0.016-4e-3 1.45 0.378 2.446 0.486 0.366 0.042 0.737 0.076 1.117 0.089v4.517h-1.563c-1.1 0-2-0.9-2-2z" fill="#fff"/><path d="m27.335 20.702c-0.178-0.161-0.444-0.171-0.635-0.029-0.03 0.022-2.259 1.668-5.411 2.47-0.443 0.113-1.864 0.43-3.286 0.431-1.424 0-2.849-0.318-3.292-0.431-3.152-0.802-5.381-2.448-5.411-2.47-0.19-0.142-0.457-0.132-0.635 0.029-0.178 0.16-0.217 0.423-0.094 0.628 0.097 0.162 1.885 3.067 5.429 4.481v-1.829c-0.016-4e-3 1.45 0.378 2.446 0.486 0.366 0.042 0.737 0.076 1.117 0.089 0.146 5e-3 0.289 0.016 0.437 0.016s0.291-0.011 0.438-0.016c0.38-0.013 0.751-0.046 1.117-0.089 0.996-0.108 2.462-0.49 2.446-0.486v1.829c3.544-1.414 5.332-4.319 5.429-4.481 0.122-0.205 0.083-0.468-0.095-0.628z" fill="#65471b"/><path d="M34.808 9.627c-.171-.166-1.267.274-2.376-.291-2.288-1.166-8.07-2.291-11.834.376-.403.285-2.087.333-2.558.313-.471.021-2.155-.027-2.558-.313-3.763-2.667-9.545-1.542-11.833-.376-1.109.565-2.205.125-2.376.291-.247.239-.247 1.196.001 1.436.246.239 1.477.515 1.722 1.232.247.718.249 4.958 2.213 6.424 1.839 1.372 6.129 1.785 8.848.238 2.372-1.349 2.289-4.189 2.724-5.881.155-.603.592-.907 1.26-.907s1.105.304 1.26.907c.435 1.691.351 4.532 2.724 5.881 2.719 1.546 7.009 1.133 8.847-.238 1.965-1.465 1.967-5.706 2.213-6.424.245-.717 1.476-.994 1.722-1.232.248-.24.249-1.197.001-1.436zm-20.194 3.65c-.077 1.105-.274 3.227-1.597 3.98-.811.462-1.868.743-2.974.743h-.001c-1.225 0-2.923-.347-3.587-.842-.83-.619-1.146-3.167-1.265-4.12-.076-.607-.28-2.09.388-2.318 1.06-.361 2.539-.643 4.052-.643.693 0 3.021.043 4.155.741 1.005.617.872 1.851.829 2.459zm16.278-.253c-.119.954-.435 3.515-1.265 4.134-.664.495-2.362.842-3.587.842h-.001c-1.107 0-2.163-.281-2.975-.743-1.323-.752-1.52-2.861-1.597-3.966-.042-.608-.176-1.851.829-2.468 1.135-.698 3.462-.746 4.155-.746 1.513 0 2.991.277 4.052.638.668.228.465 1.702.389 2.309z" fill="#292F33"/><path d="m21.229 3.947c0 0.24 0.03 0.472 0.082 0.696 0.425 2.643 3.364 5.431 5.47 6.197 1.665-0.605 3.846-2.476 4.898-4.539-2.089-2.44-4.819-4.314-7.929-5.362-1.432 0.257-2.521 1.502-2.521 3.008zm-7.486 25.131c0.057-0.242 0.09-0.494 0.09-0.754 0-1.833-1.486-3.319-3.319-3.319-1.113 0-2.094 0.549-2.697 1.389-0.602-0.839-1.584-1.389-2.697-1.389-1.241 0-2.311 0.689-2.88 1.698 1.824 3.295 4.65 5.957 8.068 7.574 1.637-1.351 3.131-3.307 3.435-5.199zm20.558-3.436c-0.282-0.95-1.152-1.647-2.194-1.647-0.771 0-1.451 0.38-1.868 0.962-0.417-0.582-1.097-0.962-1.868-0.962-1.27 0-2.299 1.029-2.299 2.299 0 0.18 0.023 0.354 0.062 0.522 0.307 1.905 2.348 3.896 3.909 4.561 1.776-1.6 3.231-3.547 4.258-5.735z" fill="#ffac33"/><path d="m33.625 3.269c0-1.692-1.372-3.063-3.063-3.063-1.027 0-1.933 0.507-2.489 1.282-0.556-0.775-1.462-1.282-2.489-1.282-1.692 0-3.063 1.371-3.063 3.063 0 0.24 0.03 0.472 0.082 0.696 0.426 2.643 3.364 5.431 5.47 6.197 2.106-0.766 5.044-3.554 5.469-6.196 0.053-0.225 0.083-0.457 0.083-0.697zm-21.417 25.139c0-1.833-1.486-3.319-3.319-3.319-1.113 0-2.094 0.549-2.697 1.389-0.602-0.84-1.584-1.389-2.697-1.389-1.833 0-3.319 1.486-3.319 3.319 0 0.26 0.033 0.511 0.089 0.754 0.461 2.863 3.644 5.884 5.926 6.714 2.282-0.829 5.465-3.85 5.926-6.713 0.058-0.244 0.091-0.496 0.091-0.755zm23.74-2.281c0-1.27-1.029-2.299-2.299-2.299-0.771 0-1.451 0.38-1.868 0.962-0.417-0.582-1.097-0.962-1.868-0.962-1.27 0-2.299 1.029-2.299 2.299 0 0.18 0.023 0.354 0.062 0.522 0.319 1.983 2.524 4.076 4.105 4.65 1.58-0.574 3.786-2.667 4.104-4.65 0.04-0.168 0.063-0.342 0.063-0.522z" fill="#dd2e44"/><path d="m29.184 16.086c-0.419 0-0.809-0.265-0.948-0.684-0.203-0.599-1.019-2.316-2.052-2.316-1.062 0-1.889 1.827-2.052 2.316-0.175 0.523-0.736 0.808-1.265 0.632-0.523-0.174-0.807-0.741-0.632-1.265 0.125-0.377 1.304-3.684 3.948-3.684s3.823 3.307 3.948 3.684c0.175 0.524-0.108 1.091-0.632 1.265-0.104 0.036-0.21 0.052-0.315 0.052z" fill="#664500"/><path d="m12.895 16.225c-0.419 0-0.809-0.265-0.949-0.684-0.203-0.599-1.018-2.316-2.051-2.316-1.062 0-1.888 1.827-2.051 2.316-0.175 0.523-0.738 0.808-1.265 0.632-0.524-0.174-0.807-0.741-0.632-1.265 0.125-0.377 1.304-3.684 3.949-3.684 2.645 0 3.823 3.307 3.949 3.684 0.175 0.524-0.108 1.091-0.632 1.265-0.106 0.036-0.213 0.052-0.318 0.052z" fill="#664500"/></svg>
