<?xml version="1.0" encoding="UTF-8"?>
<svg version="1.1" viewBox="0 0 36 36" xmlns="http://www.w3.org/2000/svg" xmlns:cc="http://creativecommons.org/ns#" xmlns:dc="http://purl.org/dc/elements/1.1/" xmlns:rdf="http://www.w3.org/1999/02/22-rdf-syntax-ns#"><metadata><rdf:RDF><cc:Work rdf:about=""><dc:format>image/svg+xml</dc:format><dc:type rdf:resource="http://purl.org/dc/dcmitype/StillImage"/></cc:Work></rdf:RDF></metadata><circle cx="18" cy="17.018" r="17" fill="#FFCB4C"/><path d="m14.621 24.996c-0.145-0.116-0.258-0.274-0.312-0.464-0.134-0.46 0.13-0.918 0.59-1.021 4.528-1.021 7.577 1.363 7.706 1.465 0.384 0.306 0.459 0.845 0.173 1.205-0.286 0.358-0.828 0.401-1.211 0.097-0.11-0.084-2.523-1.923-6.182-1.098-0.274 0.061-0.554-0.016-0.764-0.184z" fill="#65471b"/><ellipse cx="13.119" cy="11.174" rx="2.125" ry="2.656" fill="#65471B"/><ellipse cx="24.375" cy="12.236" rx="2.125" ry="2.656" fill="#65471B"/><path d="m14.621 24.996s1.265-0.411 1.429-1.352c0.173-0.972-0.624-1.167-0.624-1.167s1.041-0.208 1.172-1.376c0.123-1.101-0.861-1.363-0.861-1.363s0.97-0.4 1.016-1.539c0.038-0.959-0.995-1.428-0.995-1.428s5.038-1.221 5.556-1.341c0.516-0.12 1.32-0.615 1.069-1.694-0.249-1.08-1.204-1.118-1.697-1.003-0.494 0.115-6.744 1.566-8.9 2.068l-1.439 0.334c-0.54 0.127-0.785-0.11-0.404-0.512 0.508-0.536 0.833-1.129 0.946-2.113 0.119-1.035-0.232-2.313-0.433-2.809-0.374-0.921-1.005-1.649-1.734-1.899-1.137-0.39-1.945 0.321-1.542 1.561 0.604 1.854 0.208 3.375-0.833 4.293-2.449 2.157-3.588 3.695-2.83 6.973 0.828 3.575 4.377 5.876 7.952 5.048z" fill="#f19020"/><path d="M9.296 6.351c-.164-.088-.303-.224-.391-.399-.216-.428-.04-.927.393-1.112 4.266-1.831 7.699-.043 7.843.034.433.231.608.747.391 1.154-.216.405-.74.546-1.173.318-.123-.063-2.832-1.432-6.278.047-.257.109-.547.085-.785-.042zm12.135 3.75c-.156-.098-.286-.243-.362-.424-.187-.442.023-.927.468-1.084 4.381-1.536 7.685.48 7.823.567.415.26.555.787.312 1.178-.242.39-.776.495-1.191.238-.12-.072-2.727-1.621-6.267-.379-.266.091-.553.046-.783-.096z" fill="#65471B"/><path d="m20.484 14.235s-1.1144 0.09916-1.6879-0.66352c-0.59498-0.78649-0.11223-1.2455-0.11223-1.2455s-0.85415 0.19536-1.5134-0.77757c-0.62112-0.9173-0.03538-1.5026-0.03538-1.5026s-0.89554 0.0019-1.4793-0.97648c-0.49097-0.82404 0.03022-1.6079 0.03022-1.6079s-4.2373 0.7582-4.6703 0.84099c-0.43155 0.08207-1.2528-0.05914-1.5926-1.0927-0.34167-1.0337 0.33134-1.4128 0.74382-1.4909 0.4132-0.07847 5.6391-1.0748 7.4425-1.4172l1.2032-0.22945c0.45231-0.08465 0.51514-0.38045 0.04504-0.59363-0.6268-0.28425-1.1487-0.68458-1.706-1.5033-0.58633-0.86109-0.94984-2.1047-1.044-2.6108-0.17434-0.94008-0.06934-1.8046 0.3376-2.2871 0.63465-0.75256 1.5632-0.42409 1.8707 0.80517 0.45872 1.8385 1.4804 3.0238 2.6777 3.4487 2.8154 0.99731 4.3832 1.9284 5.4186 5.0667 1.1283 3.4231-0.32903 6.7189-3.3173 7.2904z" fill="#f19020" stroke-width=".89861"/></svg>
