<?xml version="1.0" encoding="UTF-8"?>
<svg version="1.1" viewBox="0 0 36 36" xmlns="http://www.w3.org/2000/svg" xmlns:cc="http://creativecommons.org/ns#" xmlns:dc="http://purl.org/dc/elements/1.1/" xmlns:rdf="http://www.w3.org/1999/02/22-rdf-syntax-ns#"><metadata><rdf:RDF><cc:Work rdf:about=""><dc:format>image/svg+xml</dc:format><dc:type rdf:resource="http://purl.org/dc/dcmitype/StillImage"/></cc:Work></rdf:RDF></metadata><circle cx="17" cy="19" r="17" fill="#FFCC4D"/><ellipse cx="17.574" cy="23.625" rx="2" ry="2.5" fill="#664500"/><path d="m7.6859 19.008c-0.182 0-0.367-0.05-0.532-0.154-0.467-0.294-0.607-0.911-0.313-1.379 0.916-1.453 3.701-3.938 7.69-2.962 0.536 0.131 0.864 0.673 0.733 1.209-0.132 0.536-0.676 0.862-1.209 0.733-3.604-0.882-5.502 2.056-5.521 2.086-0.191 0.302-0.516 0.467-0.848 0.467zm11.973-3.742c-0.29 0-0.576-0.125-0.774-0.366-0.35-0.427-0.288-1.058 0.14-1.408 3.176-2.604 6.762-1.562 8.215-0.646 0.467 0.294 0.607 0.912 0.312 1.379-0.293 0.465-0.908 0.607-1.376 0.315-0.138-0.084-3.052-1.823-5.884 0.499-0.186 0.153-0.41 0.227-0.633 0.227z" fill="#664500"/><path d="m34.93 33.331-2.6137-10.788c-0.40594-1.6768-2.0994-2.7118-3.7776-2.3045-0.1581 0.03813-0.30922 0.09114-0.45662 0.15159-0.28225-0.30875-0.64262-0.53614-1.056-0.64913-1.1908-0.32735-2.4268 0.37711-2.7532 1.5689l-2.3482 8.5642c-0.09579 0.34874-0.04975 0.7133 0.12927 1.0272 0.17902 0.31433 0.46964 0.53985 0.81792 0.63471 0.11904 0.03255 0.23994 0.04882 0.3599 0.04882 0.23203 0 0.46081-0.05998 0.66773-0.17809 0.31387-0.17902 0.53939-0.46918 0.63518-0.81792l1.4085-5.1386c0.06789-0.24738-0.07765-0.50358-0.32549-0.57147-0.24784-0.06835-0.50359 0.07765-0.57148 0.32549l-1.4085 5.1382c-0.02976 0.10881-0.10044 0.20041-0.19855 0.25621-0.09765 0.0558-0.21204 0.07068-0.32131 0.03999-0.10927-0.02883-0.19995-0.09904-0.25574-0.19716-0.0558-0.09811-0.07021-0.21204-0.04045-0.32084l2.3473-8.5647c0.19111-0.69702 0.91464-1.1076 1.6107-0.91789 0.17902 0.04929 0.34084 0.13578 0.48034 0.2497-0.25482 0.21483-0.47801 0.46964-0.65657 0.76305-0.43523 0.7133-0.56636 1.554-0.36967 2.3659l0.45941 1.8958-1.9302 7.0418c-0.15531 0.56682-0.52218 1.0388-1.0323 1.3294-0.51056 0.29108-1.1034 0.36548-1.6702 0.20971-0.56636-0.15484-1.0383-0.52126-1.3294-1.0318-0.29062-0.51056-0.36548-1.1034-0.21018-1.6698l1.9953-7.2799c0.06789-0.24738-0.07765-0.50358-0.32549-0.57147-0.24784-0.06789-0.50359 0.07765-0.57147 0.32549l-1.9939 7.2799c-0.22087 0.80583-0.11485 1.6498 0.29899 2.3756 0.41384 0.72632 1.0858 1.248 1.8916 1.4689 0.27528 0.07533 0.55473 0.11253 0.8328 0.11253 0.53567 0 1.0653-0.13903 1.5438-0.41198 0.72632-0.41384 1.248-1.0853 1.4689-1.8911l1.4856-5.4199 0.86581 3.5725c0.05115 0.21297 0.2418 0.35572 0.45151 0.35572 0.03627 0 0.073-0.0042 0.10974-0.01302 0.2497-0.06045 0.40268-0.31201 0.34223-0.56124l-1.2615-5.206 0.94068-3.4326c0.11718-0.42872 0.10462-0.87232-0.03069-1.2852 0.06463-0.02232 0.12601-0.05115 0.19344-0.06742 1.1806-0.28597 2.3696 0.44128 2.6551 1.6196l2.6137 10.788c0.17019 0.7026-0.26272 1.4126-0.96532 1.5828-0.34037 0.0823-0.69191 0.0279-0.99183-0.15484-0.29899-0.18274-0.5087-0.47057-0.591-0.81048l-2.0911-8.6302v-4.65e-4c-0.02697-0.10974-0.0093-0.22273 0.04975-0.31945 0.05859-0.09672 0.15159-0.16414 0.26132-0.19065 0.22552-0.05626 0.45569 0.08509 0.51102 0.31108l1.2545 5.1786c0.05115 0.21297 0.2418 0.35572 0.45151 0.35572 0.03627 0 0.073-0.0042 0.10974-0.01302 0.2497-0.06045 0.40268-0.31154 0.34223-0.56124l-1.2545-5.1786c-0.17484-0.72446-0.90906-1.1722-1.6335-0.99648-0.35153 0.08509-0.64866 0.30178-0.83698 0.61007-0.18786 0.30875-0.24458 0.67191-0.15949 1.0234v4.65e-4l2.0911 8.6298c0.14089 0.5817 0.4994 1.0741 1.0109 1.3852 0.35618 0.21715 0.75608 0.32875 1.1625 0.32875 0.17763 0 0.35572-0.02139 0.53242-0.06417 1.2006-0.29108 1.9409-1.5047 1.6498-2.7053zm-7.5324-11.197c0.09346-0.15391 0.20878-0.28783 0.3334-0.41152 0.02418 0.17391 0.01441 0.352-0.03348 0.52637l-0.49614 1.8102-0.0637-0.26179c-0.1381-0.57101-0.04603-1.1615 0.25993-1.6633z" fill="#99aab5" stroke-width=".46499"/><path d="m27.202 24.059 0.45244 1.8679 0.15066-0.5552-0.43988-1.9069zm-0.67191 2.4463 0.45011 1.8744 0.16647-0.6003-0.45244-1.8674zm2.0348-5.2962s0.14136-0.05859 0.25016-0.08044c0 0-0.11625-0.47243-0.47569-0.83559l-0.25668 0.09672c-4.65e-4 4.65e-4 0.34037 0.35432 0.4822 0.81932zm-1.0179 0.71516s0.12369-0.15252 0.1846-0.20181c0 0-0.04231-0.50498-0.47057-0.83559l-0.19344 0.18042c0.39245 0.25761 0.47941 0.85698 0.47941 0.85698z" fill="#66757f" stroke-width=".46499"/></svg>
