<?xml version="1.0" encoding="UTF-8"?>
<svg version="1.1" viewBox="0 0 36 36" xmlns="http://www.w3.org/2000/svg"><circle cx="18" cy="18" r="18" fill="#FFCC4D"/><path d="M20.996 27c-.103 0-.206-.016-.309-.049-1.76-.571-3.615-.571-5.375 0-.524.169-1.089-.117-1.26-.642-.171-.525.117-1.089.643-1.26 2.162-.702 4.447-.702 6.609 0 .525.171.813.735.643 1.26-.137.421-.529.691-.951.691z" fill="#65471B"/><path d="M30.335 12.068c-.903 2.745-3.485 4.715-6.494 4.715-.144 0-.289-.005-.435-.014-1.477-.093-2.842-.655-3.95-1.584.036.495.076.997.136 1.54.152 1.388.884 2.482 2.116 3.163.82.454 1.8.688 2.813.752 1.734.109 3.57-.28 4.873-.909 1.377-.665 2.272-1.862 2.456-3.285.183-1.415-.354-2.924-1.515-4.378z" fill="#FFF"/><path d="M21.351 7.583c-1.297.55-1.947 2.301-1.977 5.289l.039.068c.897 1.319 2.373 2.224 4.088 2.332.114.007.228.011.341.011 2.634 0 4.849-1.937 5.253-4.524-.115-.105-.221-.212-.343-.316-3.715-3.17-6.467-3.257-7.401-2.86z" fill="#65471B"/><path d="M23.841 16.783c3.009 0 5.591-1.97 6.494-4.715-.354-.443-.771-.88-1.241-1.309-.404 2.587-2.619 4.524-5.253 4.524-.113 0-.227-.004-.341-.011-1.715-.108-3.191-1.013-4.088-2.332l-.039-.068c-.007.701.021 1.473.083 2.313 1.108.929 2.473 1.491 3.95 1.584.146.01.291.014.435.014z" fill="#F4900C"/><circle cx="21.413" cy="10.705" r="1.107" fill="#FFF"/><path d="M12.159 16.783c-3.009 0-5.591-1.97-6.494-4.715-1.161 1.454-1.697 2.963-1.515 4.377.185 1.423 1.079 2.621 2.456 3.285 1.303.629 3.138 1.018 4.873.909 1.013-.064 1.993-.297 2.813-.752 1.231-.681 1.963-1.775 2.116-3.163.06-.542.1-1.042.136-1.536-1.103.923-2.47 1.487-3.95 1.58-.146.011-.291.015-.435.015z" fill="#FFF"/><path d="M12.159 15.283c.113 0 .227-.004.341-.011 1.715-.108 3.191-1.013 4.088-2.332l.039-.068c-.031-2.988-.68-4.739-1.977-5.289-.934-.397-3.687-.31-7.401 2.859-.122.104-.227.211-.343.316.404 2.588 2.619 4.525 5.253 4.525z" fill="#65471B"/><path d="M16.626 12.872l-.039.068c-.897 1.319-2.373 2.224-4.088 2.332-.114.007-.228.011-.341.011-2.634 0-4.849-1.937-5.253-4.524-.47.429-.887.866-1.241 1.309.903 2.745 3.485 4.715 6.494 4.715.144 0 .289-.005.435-.014 1.48-.093 2.847-.657 3.95-1.58.062-.841.091-1.614.083-2.317z" fill="#F4900C"/><path d="M9.781 11.81c.61-.038 1.074-.564 1.035-1.174-.038-.61-.564-1.074-1.174-1.036-.61.038-1.074.564-1.036 1.174.039.61.565 1.074 1.175 1.036z" fill="#FFF"/><path d="m21.229 3.947c0 0.24 0.03 0.472 0.082 0.696 0.425 2.643 3.364 5.431 5.47 6.197 1.665-0.605 3.846-2.476 4.898-4.539-2.089-2.44-4.819-4.314-7.929-5.362-1.432 0.257-2.521 1.502-2.521 3.008zm-7.486 25.131c0.057-0.242 0.09-0.494 0.09-0.754 0-1.833-1.486-3.319-3.319-3.319-1.113 0-2.094 0.549-2.697 1.389-0.602-0.839-1.584-1.389-2.697-1.389-1.241 0-2.311 0.689-2.88 1.698 1.824 3.295 4.65 5.957 8.068 7.574 1.637-1.351 3.131-3.307 3.435-5.199zm20.558-3.436c-0.282-0.95-1.152-1.647-2.194-1.647-0.771 0-1.451 0.38-1.868 0.962-0.417-0.582-1.097-0.962-1.868-0.962-1.27 0-2.299 1.029-2.299 2.299 0 0.18 0.023 0.354 0.062 0.522 0.307 1.905 2.348 3.896 3.909 4.561 1.776-1.6 3.231-3.547 4.258-5.735z" fill="#ffac33"/><path d="m33.625 3.269c0-1.692-1.372-3.063-3.063-3.063-1.027 0-1.933 0.507-2.489 1.282-0.556-0.775-1.462-1.282-2.489-1.282-1.692 0-3.063 1.371-3.063 3.063 0 0.24 0.03 0.472 0.082 0.696 0.426 2.643 3.364 5.431 5.47 6.197 2.106-0.766 5.044-3.554 5.469-6.196 0.053-0.225 0.083-0.457 0.083-0.697zm-21.417 25.139c0-1.833-1.486-3.319-3.319-3.319-1.113 0-2.094 0.549-2.697 1.389-0.602-0.84-1.584-1.389-2.697-1.389-1.833 0-3.319 1.486-3.319 3.319 0 0.26 0.033 0.511 0.089 0.754 0.461 2.863 3.644 5.884 5.926 6.714 2.282-0.829 5.465-3.85 5.926-6.713 0.058-0.244 0.091-0.496 0.091-0.755zm23.74-2.281c0-1.27-1.029-2.299-2.299-2.299-0.771 0-1.451 0.38-1.868 0.962-0.417-0.582-1.097-0.962-1.868-0.962-1.27 0-2.299 1.029-2.299 2.299 0 0.18 0.023 0.354 0.062 0.522 0.319 1.983 2.524 4.076 4.105 4.65 1.58-0.574 3.786-2.667 4.104-4.65 0.04-0.168 0.063-0.342 0.063-0.522z" fill="#dd2e44"/></svg>
