<?xml version="1.0" encoding="UTF-8"?>
<svg version="1.1" viewBox="0 0 36 36" xmlns="http://www.w3.org/2000/svg"><path d="M36 18c0 9.941-8.059 18-18 18-9.94 0-18-8.059-18-18C0 8.06 8.06 0 18 0c9.941 0 18 8.06 18 18" fill="#FFCC4D"/><g fill="#fff"><path d="m23.939 21.817c1.8743 0 3.3939 1.4253 3.3939 3.1832s-1.5196 3.1832-3.3939 3.1832h-11.879c-1.8743 0-3.3939-1.4253-3.3939-3.1832s1.5196-3.1832 3.3939-3.1832z" stroke-width=".82172"/><rect x="14.166" y="21.084" width="7.6836" height="1.2157"/><rect x="14.203" y="27.71" width="7.7329" height="1.1212"/></g><path d="m25.32 21.956s-4.9405-1.7724-7.4399-1.7586c-2.2361 0.01234-6.6463 1.7335-6.6463 1.7335-2.3176 0.31729-3.049 3.2275-3.049 3.2275s1.2621 3.1841 3.8752 3.2103c0 0 3.7129 1.5691 5.5859 1.5728 2.1092 0.0042 6.2929-1.6248 6.2929-1.6248 2.594-0.12098 4.3057-3.3827 4.3057-3.3827s-0.60359-2.6862-2.9246-2.9779zm-1.3811 0.65655c1.2583 0 2.2994 0.86264 2.5022 1.9895h-2.9264v-1.9895zm-1.2727-0.28456v2.274h-2.5454v-3.1277zm-3.3939-0.90486v3.1789h-2.5454v-3.17zm-3.3939 0.01732v3.1616h-2.5454v-2.4005zm-3.8182 1.1721h0.42424v1.9895h-2.9264c0.20279-1.1268 1.2439-1.9895 2.5022-1.9895zm0 4.7748c-1.2583 0-2.2994-0.86264-2.5022-1.9895h2.9264v1.9895zm1.2727 0.42712v-2.4166h2.5454v3.3913zm3.3939 0.99848v-3.4151h2.5454v3.3869zm3.3939-0.1082v-3.3069h2.5454v2.3905zm3.8182-1.3174h-0.42424v-1.9895h2.9264c-0.20279 1.1268-1.2439 1.9895-2.5022 1.9895z" fill="#664500" stroke-width=".82172"/><circle cx="24.5" cy="13.272" r="5.5" fill="#f5f8fa"/><circle cx="11.5" cy="13.272" r="5.5" fill="#f5f8fa"/><circle cx="11.5" cy="13.272" r="2.5" fill="#292f33"/><circle cx="24.5" cy="13.272" r="2.5" fill="#292f33"/><rect x="5.1352" y="6.3475" width="26.087" height="5.9704" fill="#ffcc4d" stroke-width=".92411"/><path d="m20.925 11.586c-0.208 0-0.419-0.065-0.599-0.2-0.442-0.331-0.531-0.958-0.2-1.4 3.262-4.35 7.616-4.4 7.8-4.4 0.552 0 1 0.448 1 1 0 0.551-0.445 0.998-0.996 1-0.155 2e-3 -3.568 0.086-6.204 3.6-0.196 0.262-0.497 0.4-0.801 0.4z" fill="#664500"/><path d="m15.002 11.81c-0.305 0-0.604-0.138-0.801-0.4-2.64-3.521-6.061-3.598-6.206-3.6-0.55-6e-3 -0.994-0.456-0.991-1.005 3e-3 -0.551 0.447-0.995 0.997-0.995 0.184 0 4.537 0.05 7.8 4.4 0.332 0.442 0.242 1.069-0.2 1.4-0.18 0.135-0.39 0.2-0.599 0.2z" fill="#664500"/></svg>
