<?xml version="1.0" encoding="UTF-8"?>
<svg version="1.1" viewBox="0 0 36 36" xmlns="http://www.w3.org/2000/svg" xmlns:cc="http://creativecommons.org/ns#" xmlns:dc="http://purl.org/dc/elements/1.1/" xmlns:rdf="http://www.w3.org/1999/02/22-rdf-syntax-ns#"><metadata><rdf:RDF><cc:Work rdf:about=""><dc:format>image/svg+xml</dc:format><dc:type rdf:resource="http://purl.org/dc/dcmitype/StillImage"/></cc:Work></rdf:RDF></metadata><path d="M36 18c0 9.941-8.059 18-18 18-9.94 0-18-8.059-18-18C0 8.06 8.06 0 18 0c9.941 0 18 8.06 18 18" fill="#FFCC4D"/><ellipse cx="12" cy="13.5" rx="2.5" ry="3.5" fill="#664500"/><ellipse cx="24" cy="13.5" rx="2.5" ry="3.5" fill="#664500"/><path d="M25 21c2.209 0 4 1.791 4 4s-1.791 4-4 4H11c-2.209 0-4-1.791-4-4s1.791-4 4-4h14z" fill="#FFF"/><path d="M25 20H11c-2.757 0-5 2.243-5 5s2.243 5 5 5h14c2.757 0 5-2.243 5-5s-2.243-5-5-5zm0 2c1.483 0 2.71 1.084 2.949 2.5H24.5V22h.5zm-1.5 0v2.5h-3V22h3zm-4 0v2.5h-3V22h3zm-4 0v2.5h-3V22h3zM11 22h.5v2.5H8.051C8.29 23.084 9.517 22 11 22zm0 6c-1.483 0-2.71-1.084-2.949-2.5H11.5V28H11zm1.5 0v-2.5h3V28h-3zm4 0v-2.5h3V28h-3zm4 0v-2.5h3V28h-3zm4.5 0h-.5v-2.5h3.449C27.71 26.916 26.483 28 25 28z" fill="#664500"/><path d="m30.803 12.62c0 3.59-2.91 6.5-6.5 6.5s-6.5-2.91-6.5-6.5c0-3.59 2.91-6.5 6.5-6.5s6.5 2.91 6.5 6.5z" fill="#f5f8fa"/><circle cx="24.303" cy="12.62" r="2.5" fill="#292f33"/><path d="m17.743 12.883c0 3.59-2.91 6.5-6.5 6.5-3.59 0-6.5-2.91-6.5-6.5 0-3.59 2.91-6.5 6.5-6.5 3.59 0 6.5 2.91 6.5 6.5z" fill="#f5f8fa"/><circle cx="11.243" cy="12.883" r="2.5" fill="#292f33"/></svg>
