<?xml version="1.0" encoding="UTF-8"?>
<svg version="1.1" viewBox="0 0 36 36" xmlns="http://www.w3.org/2000/svg"><path d="M36 18c0 9.941-8.059 18-18 18S0 27.941 0 18 8.059 0 18 0s18 8.059 18 18" fill="#FFCC4D"/><path d="m29 12c-5.554 0-7.802-4.367-7.895-4.553-0.247-0.494-0.047-1.095 0.447-1.342 0.493-0.247 1.092-0.048 1.34 0.443 0.075 0.146 1.821 3.452 6.108 3.452 0.553 0 1 0.448 1 1s-0.447 1-1 1zm-22 0c-0.552 0-1-0.448-1-1s0.448-1 1-1c5.083 0 5.996-3.12 6.033-3.253 0.145-0.528 0.692-0.848 1.219-0.709 0.53 0.139 0.851 0.673 0.718 1.205-0.049 0.194-1.266 4.757-7.97 4.757z" fill="#664500"/><path d="m18 22c-3.623 0-6.027-0.422-9-1-0.679-0.131-2 0-2 2 0 4 4.595 9 11 9 6.404 0 11-5 11-9 0-2-1.321-2.132-2-2-2.973 0.578-5.377 1-9 1z" fill="#664500"/><path d="m9 23s3 1 9 1 9-1 9-1-1.344 6.75-9 6.75-9-6.75-9-6.75z" fill="#fff"/><path d="m18 27.594c-3.596 0-6.272-0.372-7.937-0.745l-0.825-1.871c0.823 0.312 3.889 0.897 8.763 0.897 4.954 0 8.037-0.616 8.864-0.938l-0.701 1.842c-1.634 0.38-4.419 0.815-8.164 0.815z" fill="#664500"/><path d="m16 18.662c-0.419 0-0.809-0.265-0.949-0.684-0.203-0.599-1.017-2.316-2.051-2.316-1.062 0-1.888 1.827-2.051 2.316-0.175 0.523-0.738 0.808-1.265 0.632-0.524-0.174-0.807-0.741-0.632-1.265 0.125-0.376 1.304-3.683 3.948-3.683s3.823 3.307 3.949 3.684c0.175 0.524-0.108 1.091-0.632 1.265-0.106 0.034-0.213 0.051-0.317 0.051zm10 0c-0.419 0-0.809-0.265-0.948-0.684-0.203-0.599-1.019-2.316-2.052-2.316-1.062 0-1.889 1.827-2.052 2.316-0.175 0.523-0.736 0.808-1.265 0.632-0.523-0.174-0.807-0.741-0.632-1.265 0.126-0.376 1.304-3.683 3.949-3.683s3.823 3.307 3.948 3.684c0.175 0.524-0.108 1.091-0.632 1.265-0.105 0.034-0.212 0.051-0.316 0.051z" fill="#664500"/></svg>
